<?xml version="1.0" encoding="utf-8"?>
<svg id="master-artboard" viewBox="0 0 1400 980" version="1.1" xmlns="http://www.w3.org/2000/svg" x="0px" y="0px" style="enable-background:new 0 0 1400 980;" width="1400px" height="980px"><defs><filter style="color-interpolation-filters:sRGB" id="filter4837" x="-0.0075478931" width="1.0150958" y="-0.052554548" height="1.1051091"> <feGaussianBlur stdDeviation="0.082230346" id="feGaussianBlur4839"/> </filter></defs><g transform="matrix(4.666666666666667, 0, 0, 4.666666666666667, 6.999920277683486, 0.000005331304635092238)"><metadata id="metadata5"> </metadata><g id="layer2" transform="translate(0,-87)"> <path d="M -0.00001 87 H 296.99999 V 297 H -0.00001 V 87 Z" style="opacity: 1; fill: rgb(0, 217, 192); fill-opacity: 0; stroke: none; stroke-width: 0.041646; stroke-linecap: round; stroke-linejoin: round; stroke-miterlimit: 4; stroke-dasharray: none; stroke-dashoffset: 0; stroke-opacity: 1;" id="rect4845"/> </g><g id="layer1" transform="translate(0,-87)"> <g id="g6669"> <path d="M 85.446579 220.805878 H 95.352488 V 235.200401 H 85.446579 V 220.805878 Z" id="rect4538" style="opacity:1;fill:#616161;fill-opacity:1;stroke:none;stroke-width:0.06191194;stroke-linecap:round;stroke-linejoin:round;stroke-miterlimit:4;stroke-dasharray:none;stroke-dashoffset:0;stroke-opacity:1"/> <path id="rect4494" d="m 74.718899,235.11026 c -0.144266,0 -0.169298,0.12881 -0.260399,0.2258 l -1.015586,1.08117 c -0.09111,0.097 0.116133,0.22579 0.260399,0.22579 h 14.763282 3.865633 14.763522 c 0.14426,0 0.35151,-0.12881 0.2604,-0.22579 l -1.01559,-1.08117 c -0.0911,-0.097 -0.11613,-0.2258 -0.26039,-0.2258 H 92.332228 88.466595 Z" style="opacity:1;fill:#4d4d4d;fill-opacity:1;stroke:none;stroke-width:0.06191194;stroke-linecap:round;stroke-linejoin:round;stroke-miterlimit:4;stroke-dasharray:none;stroke-dashoffset:0;stroke-opacity:1"/> <path d="M 42.331089 168.156082 H 138.467968 V 220.857113 H 42.331089 V 168.156082 Z" style="opacity:1;fill:#1a1a1a;fill-opacity:1;stroke:none;stroke-width:0.06191194;stroke-linecap:round;stroke-linejoin:round;stroke-miterlimit:4;stroke-dasharray:none;stroke-dashoffset:0;stroke-opacity:1" id="rect4536"/> <path d="M 43.535 168.703308 H 137.264065 V 217.135952 H 43.535 V 168.703308 Z" id="rect4540" style="opacity:1;fill:#333333;fill-opacity:1;stroke:none;stroke-width:0.06191193;stroke-linecap:round;stroke-linejoin:round;stroke-miterlimit:4;stroke-dasharray:none;stroke-dashoffset:0;stroke-opacity:1"/> <path d="M 43.535015 175.098114 H 61.858974 V 217.135956 H 43.535015 V 175.098114 Z" style="opacity:1;fill:#4d4d4d;fill-opacity:1;stroke:none;stroke-width:0.06212361;stroke-linecap:round;stroke-linejoin:round;stroke-miterlimit:4;stroke-dasharray:none;stroke-dashoffset:0;stroke-opacity:1" id="rect4544"/> <path d="M 61.702305 168.79985 H 137.004597 V 170.541124 H 61.702305 V 168.79985 Z" style="opacity:1;fill:#646464;fill-opacity:1;stroke:none;stroke-width:0.06191193;stroke-linecap:round;stroke-linejoin:round;stroke-miterlimit:4;stroke-dasharray:none;stroke-dashoffset:0;stroke-opacity:1" id="rect4546"/> <g style="stroke-width:0.84461725" transform="matrix(0.69261506,0,0,0.69261506,234.28663,94.287796)" id="g4649"> <path d="M -245.589297 114.893623 H -242.291909 A 0.369261 0.369261 0 0 1 -241.922648 115.262884 V 115.473842 A 0.369261 0.369261 0 0 1 -242.291909 115.843102 H -245.589297 A 0.369261 0.369261 0 0 1 -245.958557 115.473842 V 115.262884 A 0.369261 0.369261 0 0 1 -245.589297 114.893623 Z" id="rect4548" style="opacity:1;fill:#ab37c8;fill-opacity:1;stroke:none;stroke-width:0.08938865;stroke-linecap:round;stroke-linejoin:round;stroke-miterlimit:4;stroke-dasharray:none;stroke-dashoffset:0;stroke-opacity:1"/> <path d="M -239.400637 114.893623 H -236.415501 A 0.369261 0.369261 0 0 1 -236.046241 115.262884 V 115.473842 A 0.369261 0.369261 0 0 1 -236.415501 115.843102 H -239.400637 A 0.369261 0.369261 0 0 1 -239.769897 115.473842 V 115.262884 A 0.369261 0.369261 0 0 1 -239.400637 114.893623 Z" style="opacity:1;fill:#d4aa00;fill-opacity:1;stroke:none;stroke-width:0.08938865;stroke-linecap:round;stroke-linejoin:round;stroke-miterlimit:4;stroke-dasharray:none;stroke-dashoffset:0;stroke-opacity:1" id="rect4550"/> <path d="M -233.155611 114.893623 H -220.334551 A 0.369261 0.369261 0 0 1 -219.96529 115.262884 V 115.473842 A 0.369261 0.369261 0 0 1 -220.334551 115.843102 H -233.155611 A 0.369261 0.369261 0 0 1 -233.524872 115.473842 V 115.262884 A 0.369261 0.369261 0 0 1 -233.155611 114.893623 Z" id="rect4552" style="opacity:1;fill:#d4aa00;fill-opacity:1;stroke:none;stroke-width:0.08938865;stroke-linecap:round;stroke-linejoin:round;stroke-miterlimit:4;stroke-dasharray:none;stroke-dashoffset:0;stroke-opacity:1"/> <path d="M -216.665117 114.893623 H -213.36773 A 0.369261 0.369261 0 0 1 -212.998469 115.262884 V 115.473842 A 0.369261 0.369261 0 0 1 -213.36773 115.843102 H -216.665117 A 0.369261 0.369261 0 0 1 -217.034378 115.473842 V 115.262884 A 0.369261 0.369261 0 0 1 -216.665117 114.893623 Z" style="opacity:1;fill:#d4aa00;fill-opacity:1;stroke:none;stroke-width:0.08938865;stroke-linecap:round;stroke-linejoin:round;stroke-miterlimit:4;stroke-dasharray:none;stroke-dashoffset:0;stroke-opacity:1" id="rect4554"/> </g> <g style="stroke-width:0.84461725" transform="matrix(0.69261506,0,0,0.69261506,234.28663,94.309528)" id="g4643"> <g style="stroke-width:0.84461725" id="g4635"> <path d="M -245.589297 117.936333 H -242.291909 A 0.369261 0.369261 0 0 1 -241.922648 118.305593 V 118.516551 A 0.369261 0.369261 0 0 1 -242.291909 118.885812 H -245.589297 A 0.369261 0.369261 0 0 1 -245.958557 118.516551 V 118.305593 A 0.369261 0.369261 0 0 1 -245.589297 117.936333 Z" id="rect4556" style="opacity:1;fill:#ab37c8;fill-opacity:1;stroke:none;stroke-width:0.08938865;stroke-linecap:round;stroke-linejoin:round;stroke-miterlimit:4;stroke-dasharray:none;stroke-dashoffset:0;stroke-opacity:1"/> <path d="M -239.400637 117.936333 H -236.415501 A 0.369261 0.369261 0 0 1 -236.046241 118.305593 V 118.516551 A 0.369261 0.369261 0 0 1 -236.415501 118.885812 H -239.400637 A 0.369261 0.369261 0 0 1 -239.769897 118.516551 V 118.305593 A 0.369261 0.369261 0 0 1 -239.400637 117.936333 Z" style="opacity:1;fill:#d4aa00;fill-opacity:1;stroke:none;stroke-width:0.08938865;stroke-linecap:round;stroke-linejoin:round;stroke-miterlimit:4;stroke-dasharray:none;stroke-dashoffset:0;stroke-opacity:1" id="rect4558"/> </g> <path d="M -233.155611 117.936333 H -227.875176 A 0.369261 0.369261 0 0 1 -227.505915 118.305593 V 118.516551 A 0.369261 0.369261 0 0 1 -227.875176 118.885812 H -233.155611 A 0.369261 0.369261 0 0 1 -233.524872 118.516551 V 118.305593 A 0.369261 0.369261 0 0 1 -233.155611 117.936333 Z" style="opacity:1;fill:#d4aa00;fill-opacity:1;stroke:none;stroke-width:0.08938865;stroke-linecap:round;stroke-linejoin:round;stroke-miterlimit:4;stroke-dasharray:none;stroke-dashoffset:0;stroke-opacity:1" id="rect4560"/> <path d="M -214.548449 117.936333 H -207.017728 A 0.369261 0.369261 0 0 1 -206.648467 118.305593 V 118.516551 A 0.369261 0.369261 0 0 1 -207.017728 118.885812 H -214.548449 A 0.369261 0.369261 0 0 1 -214.917709 118.516551 V 118.305593 A 0.369261 0.369261 0 0 1 -214.548449 117.936333 Z" id="rect4562" style="opacity:1;fill:#d4aa00;fill-opacity:1;stroke:none;stroke-width:0.08938865;stroke-linecap:round;stroke-linejoin:round;stroke-miterlimit:4;stroke-dasharray:none;stroke-dashoffset:0;stroke-opacity:1"/> <path d="M -225.085818 117.936333 H -218.614757 A 0.369261 0.369261 0 0 1 -218.245497 118.305593 V 118.516551 A 0.369261 0.369261 0 0 1 -218.614757 118.885812 H -225.085818 A 0.369261 0.369261 0 0 1 -225.455078 118.516551 V 118.305593 A 0.369261 0.369261 0 0 1 -225.085818 117.936333 Z" id="rect4564" style="opacity:1;fill:#d4aa00;fill-opacity:1;stroke:none;stroke-width:0.08938865;stroke-linecap:round;stroke-linejoin:round;stroke-miterlimit:4;stroke-dasharray:none;stroke-dashoffset:0;stroke-opacity:1"/> </g> <g style="stroke-width:0.84461725" transform="matrix(0.69261506,0,0,0.69261506,234.28663,94.148007)" id="g4631"> <path d="M -245.589297 121.243622 H -242.291909 A 0.369261 0.369261 0 0 1 -241.922648 121.612882 V 121.82384 A 0.369261 0.369261 0 0 1 -242.291909 122.193101 H -245.589297 A 0.369261 0.369261 0 0 1 -245.958557 121.82384 V 121.612882 A 0.369261 0.369261 0 0 1 -245.589297 121.243622 Z" id="rect4566" style="opacity:1;fill:#ab37c8;fill-opacity:1;stroke:none;stroke-width:0.08938865;stroke-linecap:round;stroke-linejoin:round;stroke-miterlimit:4;stroke-dasharray:none;stroke-dashoffset:0;stroke-opacity:1"/> <path d="M -239.400637 121.243622 H -234.298835 A 0.369261 0.369261 0 0 1 -233.929574 121.612882 V 121.82384 A 0.369261 0.369261 0 0 1 -234.298835 122.193101 H -239.400637 A 0.369261 0.369261 0 0 1 -239.769897 121.82384 V 121.612882 A 0.369261 0.369261 0 0 1 -239.400637 121.243622 Z" style="opacity:1;fill:#d4aa00;fill-opacity:1;stroke:none;stroke-width:0.08938865;stroke-linecap:round;stroke-linejoin:round;stroke-miterlimit:4;stroke-dasharray:none;stroke-dashoffset:0;stroke-opacity:1" id="rect4568"/> </g> <g style="stroke-width:0.84461725" transform="matrix(0.69261506,0,0,0.69261506,234.28663,94.169739)" id="g4627"> <path d="M -240.297625 124.286331 H -237.000237 A 0.369261 0.369261 0 0 1 -236.630977 124.655592 V 124.866549 A 0.369261 0.369261 0 0 1 -237.000237 125.23581 H -240.297625 A 0.369261 0.369261 0 0 1 -240.666885 124.866549 V 124.655592 A 0.369261 0.369261 0 0 1 -240.297625 124.286331 Z" id="rect4570" style="opacity:1;fill:#d4aa00;fill-opacity:1;stroke:none;stroke-width:0.08938865;stroke-linecap:round;stroke-linejoin:round;stroke-miterlimit:4;stroke-dasharray:none;stroke-dashoffset:0;stroke-opacity:1"/> <path d="M -234.108965 124.286331 H -231.123829 A 0.369261 0.369261 0 0 1 -230.754569 124.655592 V 124.866549 A 0.369261 0.369261 0 0 1 -231.123829 125.23581 H -234.108965 A 0.369261 0.369261 0 0 1 -234.478226 124.866549 V 124.655592 A 0.369261 0.369261 0 0 1 -234.108965 124.286331 Z" style="opacity:1;fill:#d4aa00;fill-opacity:1;stroke:none;stroke-width:0.08938865;stroke-linecap:round;stroke-linejoin:round;stroke-miterlimit:4;stroke-dasharray:none;stroke-dashoffset:0;stroke-opacity:1" id="rect4572"/> <path d="M -227.863939 124.286331 H -222.583504 A 0.369261 0.369261 0 0 1 -222.214243 124.655592 V 124.866549 A 0.369261 0.369261 0 0 1 -222.583504 125.23581 H -227.863939 A 0.369261 0.369261 0 0 1 -228.2332 124.866549 V 124.655592 A 0.369261 0.369261 0 0 1 -227.863939 124.286331 Z" id="rect4574" style="opacity:1;fill:#d4aa00;fill-opacity:1;stroke:none;stroke-width:0.08938865;stroke-linecap:round;stroke-linejoin:round;stroke-miterlimit:4;stroke-dasharray:none;stroke-dashoffset:0;stroke-opacity:1"/> </g> <g style="stroke-width:0.84461725" transform="matrix(0.69261506,0,0,0.69261506,234.28663,94.099847)" id="g4622"> <path d="M -240.297625 127.461327 H -237.000237 A 0.369261 0.369261 0 0 1 -236.630977 127.830587 V 128.041545 A 0.369261 0.369261 0 0 1 -237.000237 128.410805 H -240.297625 A 0.369261 0.369261 0 0 1 -240.666885 128.041545 V 127.830587 A 0.369261 0.369261 0 0 1 -240.297625 127.461327 Z" style="opacity:1;fill:#d4aa00;fill-opacity:1;stroke:none;stroke-width:0.08938865;stroke-linecap:round;stroke-linejoin:round;stroke-miterlimit:4;stroke-dasharray:none;stroke-dashoffset:0;stroke-opacity:1" id="rect4576"/> <path d="M -232.45534 127.461327 H -228.279579 A 0.369261 0.369261 0 0 1 -227.910318 127.830587 V 128.041545 A 0.369261 0.369261 0 0 1 -228.279579 128.410805 H -232.45534 A 0.369261 0.369261 0 0 1 -232.8246 128.041545 V 127.830587 A 0.369261 0.369261 0 0 1 -232.45534 127.461327 Z" id="rect4578" style="opacity:1;fill:#d4aa00;fill-opacity:1;stroke:none;stroke-width:0.08938865;stroke-linecap:round;stroke-linejoin:round;stroke-miterlimit:4;stroke-dasharray:none;stroke-dashoffset:0;stroke-opacity:1"/> <path d="M -225.482699 127.461327 H -220.929868 A 0.369261 0.369261 0 0 1 -220.560607 127.830587 V 128.041545 A 0.369261 0.369261 0 0 1 -220.929868 128.410805 H -225.482699 A 0.369261 0.369261 0 0 1 -225.851959 128.041545 V 127.830587 A 0.369261 0.369261 0 0 1 -225.482699 127.461327 Z" style="opacity:1;fill:#d4aa00;fill-opacity:1;stroke:none;stroke-width:0.08938865;stroke-linecap:round;stroke-linejoin:round;stroke-miterlimit:4;stroke-dasharray:none;stroke-dashoffset:0;stroke-opacity:1" id="rect4580"/> <path d="M -218.206652 127.461327 H -199.895487 A 0.369261 0.369261 0 0 1 -199.526226 127.830587 V 128.041545 A 0.369261 0.369261 0 0 1 -199.895487 128.410805 H -218.206652 A 0.369261 0.369261 0 0 1 -218.575912 128.041545 V 127.830587 A 0.369261 0.369261 0 0 1 -218.206652 127.461327 Z" id="rect4582" style="opacity:1;fill:#d4aa00;fill-opacity:1;stroke:none;stroke-width:0.08938864;stroke-linecap:round;stroke-linejoin:round;stroke-miterlimit:4;stroke-dasharray:none;stroke-dashoffset:0;stroke-opacity:1"/> </g> <g style="stroke-width:0.84461725" transform="matrix(0.69261506,0,0,0.69261506,234.28663,93.89656)" id="g4616"> <path d="M -236.462313 130.828918 H -233.164925 A 0.369261 0.369261 0 0 1 -232.795665 131.198179 V 131.409137 A 0.369261 0.369261 0 0 1 -233.164925 131.778397 H -236.462313 A 0.369261 0.369261 0 0 1 -236.831573 131.409137 V 131.198179 A 0.369261 0.369261 0 0 1 -236.462313 130.828918 Z" id="rect4584" style="opacity:1;fill:#d4aa00;fill-opacity:1;stroke:none;stroke-width:0.08938865;stroke-linecap:round;stroke-linejoin:round;stroke-miterlimit:4;stroke-dasharray:none;stroke-dashoffset:0;stroke-opacity:1"/> <path d="M -229.929644 130.828918 H -225.753883 A 0.369261 0.369261 0 0 1 -225.384623 131.198179 V 131.409137 A 0.369261 0.369261 0 0 1 -225.753883 131.778397 H -229.929644 A 0.369261 0.369261 0 0 1 -230.298904 131.409137 V 131.198179 A 0.369261 0.369261 0 0 1 -229.929644 130.828918 Z" style="opacity:1;fill:#d4aa00;fill-opacity:1;stroke:none;stroke-width:0.08938865;stroke-linecap:round;stroke-linejoin:round;stroke-miterlimit:4;stroke-dasharray:none;stroke-dashoffset:0;stroke-opacity:1" id="rect4586"/> <path d="M -223.849261 130.828918 H -221.637931 A 0.369261 0.369261 0 0 1 -221.26867 131.198179 V 131.409137 A 0.369261 0.369261 0 0 1 -221.637931 131.778397 H -223.849261 A 0.369261 0.369261 0 0 1 -224.218521 131.409137 V 131.198179 A 0.369261 0.369261 0 0 1 -223.849261 130.828918 Z" id="rect4588" style="opacity:1;fill:#d4aa00;fill-opacity:1;stroke:none;stroke-width:0.08938865;stroke-linecap:round;stroke-linejoin:round;stroke-miterlimit:4;stroke-dasharray:none;stroke-dashoffset:0;stroke-opacity:1"/> </g> <g style="stroke-width:0.84461725" transform="matrix(0.69261506,0,0,0.69261506,234.28663,94.017223)" id="g4611"> <path d="M -236.462313 133.72879 H -233.164925 A 0.369261 0.369261 0 0 1 -232.795665 134.098051 V 134.309009 A 0.369261 0.369261 0 0 1 -233.164925 134.678269 H -236.462313 A 0.369261 0.369261 0 0 1 -236.831573 134.309009 V 134.098051 A 0.369261 0.369261 0 0 1 -236.462313 133.72879 Z" style="opacity:1;fill:#d4aa00;fill-opacity:1;stroke:none;stroke-width:0.08938865;stroke-linecap:round;stroke-linejoin:round;stroke-miterlimit:4;stroke-dasharray:none;stroke-dashoffset:0;stroke-opacity:1" id="rect4590"/> <path d="M -229.929644 133.72879 H -225.753883 A 0.369261 0.369261 0 0 1 -225.384623 134.098051 V 134.309009 A 0.369261 0.369261 0 0 1 -225.753883 134.678269 H -229.929644 A 0.369261 0.369261 0 0 1 -230.298904 134.309009 V 134.098051 A 0.369261 0.369261 0 0 1 -229.929644 133.72879 Z" id="rect4592" style="opacity:1;fill:#d4aa00;fill-opacity:1;stroke:none;stroke-width:0.08938865;stroke-linecap:round;stroke-linejoin:round;stroke-miterlimit:4;stroke-dasharray:none;stroke-dashoffset:0;stroke-opacity:1"/> </g> <g style="stroke-width:0.84461725" transform="matrix(0.69261506,0,0,0.69261506,234.28663,94.332251)" id="g4607"> <path d="M -236.462313 136.348038 H -233.164925 A 0.369261 0.369261 0 0 1 -232.795665 136.717298 V 136.928256 A 0.369261 0.369261 0 0 1 -233.164925 137.297517 H -236.462313 A 0.369261 0.369261 0 0 1 -236.831573 136.928256 V 136.717298 A 0.369261 0.369261 0 0 1 -236.462313 136.348038 Z" id="rect4596" style="opacity:1;fill:#d4aa00;fill-opacity:1;stroke:none;stroke-width:0.08938865;stroke-linecap:round;stroke-linejoin:round;stroke-miterlimit:4;stroke-dasharray:none;stroke-dashoffset:0;stroke-opacity:1"/> <path d="M -229.929629 136.348038 H -215.370447 A 0.369261 0.369261 0 0 1 -215.001186 136.717298 V 136.928256 A 0.369261 0.369261 0 0 1 -215.370447 137.297517 H -229.929629 A 0.369261 0.369261 0 0 1 -230.298889 136.928256 V 136.717298 A 0.369261 0.369261 0 0 1 -229.929629 136.348038 Z" style="opacity:1;fill:#d4aa00;fill-opacity:1;stroke:none;stroke-width:0.08938866;stroke-linecap:round;stroke-linejoin:round;stroke-miterlimit:4;stroke-dasharray:none;stroke-dashoffset:0;stroke-opacity:1" id="rect4598"/> </g> <g style="stroke-width:0.84461725" transform="matrix(0.69261506,0,0,0.69261506,234.28663,94.370026)" id="g4603"> <path d="M -245.589297 139.367584 H -242.291909 A 0.369261 0.369261 0 0 1 -241.922648 139.736845 V 139.947802 A 0.369261 0.369261 0 0 1 -242.291909 140.317063 H -245.589297 A 0.369261 0.369261 0 0 1 -245.958557 139.947802 V 139.736845 A 0.369261 0.369261 0 0 1 -245.589297 139.367584 Z" style="opacity:1;fill:#ab37c8;fill-opacity:1;stroke:none;stroke-width:0.08938865;stroke-linecap:round;stroke-linejoin:round;stroke-miterlimit:4;stroke-dasharray:none;stroke-dashoffset:0;stroke-opacity:1" id="rect4600"/> <path d="M -239.400637 139.367584 H -234.298835 A 0.369261 0.369261 0 0 1 -233.929574 139.736845 V 139.947802 A 0.369261 0.369261 0 0 1 -234.298835 140.317063 H -239.400637 A 0.369261 0.369261 0 0 1 -239.769897 139.947802 V 139.736845 A 0.369261 0.369261 0 0 1 -239.400637 139.367584 Z" id="rect4602" style="opacity:1;fill:#d4aa00;fill-opacity:1;stroke:none;stroke-width:0.08938865;stroke-linecap:round;stroke-linejoin:round;stroke-miterlimit:4;stroke-dasharray:none;stroke-dashoffset:0;stroke-opacity:1"/> </g> <g style="stroke-width:0.84461725" transform="matrix(0.69261506,0,0,0.69261506,234.28663,94.375715)" id="g4599"> <path d="M 224.498579 142.433456 H 227.795966 A 0.369261 0.369261 0 0 1 228.165227 142.802717 V 143.013675 A 0.369261 0.369261 0 0 1 227.795966 143.382935 H 224.498579 A 0.369261 0.369261 0 0 1 224.129318 143.013675 V 142.802717 A 0.369261 0.369261 0 0 1 224.498579 142.433456 Z" style="opacity:1;fill:#5aa02c;fill-opacity:1;stroke:none;stroke-width:0.08938865;stroke-linecap:round;stroke-linejoin:round;stroke-miterlimit:4;stroke-dasharray:none;stroke-dashoffset:0;stroke-opacity:1" id="rect4604" transform="scale(-1,1)"/> <path d="M 231.031263 142.433456 H 245.590445 A 0.369261 0.369261 0 0 1 245.959705 142.802717 V 143.013675 A 0.369261 0.369261 0 0 1 245.590445 143.382935 H 231.031263 A 0.369261 0.369261 0 0 1 230.662003 143.013675 V 142.802717 A 0.369261 0.369261 0 0 1 231.031263 142.433456 Z" id="rect4606" style="opacity:1;fill:#5aa02c;fill-opacity:1;stroke:none;stroke-width:0.08938866;stroke-linecap:round;stroke-linejoin:round;stroke-miterlimit:4;stroke-dasharray:none;stroke-dashoffset:0;stroke-opacity:1" transform="scale(-1,1)"/> </g> <g style="stroke-width:0.84461725" transform="matrix(0.69261506,0,0,0.69261506,234.28663,94.580704)" id="g4595"> <path d="M 222.38191 145.211578 H 225.679298 A 0.369261 0.369261 0 0 1 226.048558 145.580839 V 145.791797 A 0.369261 0.369261 0 0 1 225.679298 146.161057 H 222.38191 A 0.369261 0.369261 0 0 1 222.01265 145.791797 V 145.580839 A 0.369261 0.369261 0 0 1 222.38191 145.211578 Z" transform="scale(-1,1)" id="rect4608" style="opacity:1;fill:#5aa02c;fill-opacity:1;stroke:none;stroke-width:0.08938865;stroke-linecap:round;stroke-linejoin:round;stroke-miterlimit:4;stroke-dasharray:none;stroke-dashoffset:0;stroke-opacity:1"/> <path d="M 237.910429 145.211578 H 245.590444 A 0.369261 0.369261 0 0 1 245.959704 145.580839 V 145.791797 A 0.369261 0.369261 0 0 1 245.590444 146.161057 H 237.910429 A 0.369261 0.369261 0 0 1 237.541168 145.791797 V 145.580839 A 0.369261 0.369261 0 0 1 237.910429 145.211578 Z" transform="scale(-1,1)" style="opacity:1;fill:#5aa02c;fill-opacity:1;stroke:none;stroke-width:0.08938866;stroke-linecap:round;stroke-linejoin:round;stroke-miterlimit:4;stroke-dasharray:none;stroke-dashoffset:0;stroke-opacity:1" id="rect4610"/> <path d="M 227.85626 145.211578 H 235.536275 A 0.369261 0.369261 0 0 1 235.905536 145.580839 V 145.791797 A 0.369261 0.369261 0 0 1 235.536275 146.161057 H 227.85626 A 0.369261 0.369261 0 0 1 227.487 145.791797 V 145.580839 A 0.369261 0.369261 0 0 1 227.85626 145.211578 Z" id="rect4612" style="opacity:1;fill:#5aa02c;fill-opacity:1;stroke:none;stroke-width:0.08938866;stroke-linecap:round;stroke-linejoin:round;stroke-miterlimit:4;stroke-dasharray:none;stroke-dashoffset:0;stroke-opacity:1" transform="scale(-1,1)"/> </g> <g style="stroke-width:0.84461725" transform="matrix(0.69261506,0,0,0.69261506,234.28663,94.435221)" id="g4590"> <path d="M -245.589297 148.495712 H -242.291909 A 0.369261 0.369261 0 0 1 -241.922648 148.864973 V 149.075931 A 0.369261 0.369261 0 0 1 -242.291909 149.445191 H -245.589297 A 0.369261 0.369261 0 0 1 -245.958557 149.075931 V 148.864973 A 0.369261 0.369261 0 0 1 -245.589297 148.495712 Z" style="opacity:1;fill:#ab37c8;fill-opacity:1;stroke:none;stroke-width:0.08938865;stroke-linecap:round;stroke-linejoin:round;stroke-miterlimit:4;stroke-dasharray:none;stroke-dashoffset:0;stroke-opacity:1" id="rect4614"/> <path d="M -239.400637 148.495712 H -234.298835 A 0.369261 0.369261 0 0 1 -233.929574 148.864973 V 149.075931 A 0.369261 0.369261 0 0 1 -234.298835 149.445191 H -239.400637 A 0.369261 0.369261 0 0 1 -239.769897 149.075931 V 148.864973 A 0.369261 0.369261 0 0 1 -239.400637 148.495712 Z" id="rect4616" style="opacity:1;fill:#d4aa00;fill-opacity:1;stroke:none;stroke-width:0.08938865;stroke-linecap:round;stroke-linejoin:round;stroke-miterlimit:4;stroke-dasharray:none;stroke-dashoffset:0;stroke-opacity:1"/> </g> <g style="stroke-width:0.84461725" transform="matrix(0.69261506,0,0,0.69261506,234.28663,94.415196)" id="g4586"> <path d="M -238.843569 151.598709 H -235.546181 A 0.369261 0.369261 0 0 1 -235.176921 151.96797 V 152.178927 A 0.369261 0.369261 0 0 1 -235.546181 152.548188 H -238.843569 A 0.369261 0.369261 0 0 1 -239.21283 152.178927 V 151.96797 A 0.369261 0.369261 0 0 1 -238.843569 151.598709 Z" style="opacity:1;fill:#d4aa00;fill-opacity:1;stroke:none;stroke-width:0.08938865;stroke-linecap:round;stroke-linejoin:round;stroke-miterlimit:4;stroke-dasharray:none;stroke-dashoffset:0;stroke-opacity:1" id="rect4618"/> <path d="M -232.3109 151.598709 H -228.135139 A 0.369261 0.369261 0 0 1 -227.765879 151.96797 V 152.178927 A 0.369261 0.369261 0 0 1 -228.135139 152.548188 H -232.3109 A 0.369261 0.369261 0 0 1 -232.680161 152.178927 V 151.96797 A 0.369261 0.369261 0 0 1 -232.3109 151.598709 Z" id="rect4620" style="opacity:1;fill:#d4aa00;fill-opacity:1;stroke:none;stroke-width:0.08938865;stroke-linecap:round;stroke-linejoin:round;stroke-miterlimit:4;stroke-dasharray:none;stroke-dashoffset:0;stroke-opacity:1"/> <path d="M -226.230517 151.598709 H -224.019187 A 0.369261 0.369261 0 0 1 -223.649926 151.96797 V 152.178927 A 0.369261 0.369261 0 0 1 -224.019187 152.548188 H -226.230517 A 0.369261 0.369261 0 0 1 -226.599777 152.178927 V 151.96797 A 0.369261 0.369261 0 0 1 -226.230517 151.598709 Z" style="opacity:1;fill:#d4aa00;fill-opacity:1;stroke:none;stroke-width:0.08938865;stroke-linecap:round;stroke-linejoin:round;stroke-miterlimit:4;stroke-dasharray:none;stroke-dashoffset:0;stroke-opacity:1" id="rect4622"/> </g> <path d="M 64.187781 201.543915 H 66.471602 A 0.255755 0.255755 0 0 1 66.727357 201.79967 V 201.945783 A 0.255755 0.255755 0 0 1 66.471602 202.201538 H 64.187781 A 0.255755 0.255755 0 0 1 63.932026 201.945783 V 201.79967 A 0.255755 0.255755 0 0 1 64.187781 201.543915 Z" style="opacity:1;fill:#ab37c8;fill-opacity:1;stroke:none;stroke-width:0.06191193;stroke-linecap:round;stroke-linejoin:round;stroke-miterlimit:4;stroke-dasharray:none;stroke-dashoffset:0;stroke-opacity:1" id="rect4581"/> <path d="M 45.00964 177.862885 H 56.426999 A 0.216015 0.216015 0 0 1 56.643015 178.0789 V 178.202309 A 0.216015 0.216015 0 0 1 56.426999 178.418325 H 45.00964 A 0.216015 0.216015 0 0 1 44.793625 178.202309 V 178.0789 A 0.216015 0.216015 0 0 1 45.00964 177.862885 Z" style="opacity:1;fill:#cccccc;fill-opacity:1;stroke:none;stroke-width:0.06191194;stroke-linecap:round;stroke-linejoin:round;stroke-miterlimit:4;stroke-dasharray:none;stroke-dashoffset:0;stroke-opacity:1" id="rect4653"/> <path d="M 45.00964 180.086548 H 56.426999 A 0.216015 0.216015 0 0 1 56.643015 180.302563 V 180.425972 A 0.216015 0.216015 0 0 1 56.426999 180.641988 H 45.00964 A 0.216015 0.216015 0 0 1 44.793625 180.425972 V 180.302563 A 0.216015 0.216015 0 0 1 45.00964 180.086548 Z" id="rect4667" style="opacity:1;fill:#cccccc;fill-opacity:1;stroke:none;stroke-width:0.06191194;stroke-linecap:round;stroke-linejoin:round;stroke-miterlimit:4;stroke-dasharray:none;stroke-dashoffset:0;stroke-opacity:1"/> <path d="M 45.00964 182.310211 H 56.426999 A 0.216015 0.216015 0 0 1 56.643015 182.526227 V 182.649636 A 0.216015 0.216015 0 0 1 56.426999 182.865651 H 45.00964 A 0.216015 0.216015 0 0 1 44.793625 182.649636 V 182.526227 A 0.216015 0.216015 0 0 1 45.00964 182.310211 Z" style="opacity:1;fill:#cccccc;fill-opacity:1;stroke:none;stroke-width:0.06191194;stroke-linecap:round;stroke-linejoin:round;stroke-miterlimit:4;stroke-dasharray:none;stroke-dashoffset:0;stroke-opacity:1" id="rect4669"/> <path d="M 45.00964 184.533875 H 56.426999 A 0.216015 0.216015 0 0 1 56.643015 184.74989 V 184.873299 A 0.216015 0.216015 0 0 1 56.426999 185.089315 H 45.00964 A 0.216015 0.216015 0 0 1 44.793625 184.873299 V 184.74989 A 0.216015 0.216015 0 0 1 45.00964 184.533875 Z" id="rect4671" style="opacity:1;fill:#cccccc;fill-opacity:1;stroke:none;stroke-width:0.06191194;stroke-linecap:round;stroke-linejoin:round;stroke-miterlimit:4;stroke-dasharray:none;stroke-dashoffset:0;stroke-opacity:1"/> <path d="M 45.00964 186.757553 H 56.426999 A 0.216015 0.216015 0 0 1 56.643015 186.973569 V 187.096978 A 0.216015 0.216015 0 0 1 56.426999 187.312993 H 45.00964 A 0.216015 0.216015 0 0 1 44.793625 187.096978 V 186.973569 A 0.216015 0.216015 0 0 1 45.00964 186.757553 Z" style="opacity:1;fill:#cccccc;fill-opacity:1;stroke:none;stroke-width:0.06191194;stroke-linecap:round;stroke-linejoin:round;stroke-miterlimit:4;stroke-dasharray:none;stroke-dashoffset:0;stroke-opacity:1" id="rect4673"/> <path d="M 45.00964 188.981216 H 56.426999 A 0.216015 0.216015 0 0 1 56.643015 189.197232 V 189.320641 A 0.216015 0.216015 0 0 1 56.426999 189.536656 H 45.00964 A 0.216015 0.216015 0 0 1 44.793625 189.320641 V 189.197232 A 0.216015 0.216015 0 0 1 45.00964 188.981216 Z" id="rect4675" style="opacity:1;fill:#cccccc;fill-opacity:1;stroke:none;stroke-width:0.06191194;stroke-linecap:round;stroke-linejoin:round;stroke-miterlimit:4;stroke-dasharray:none;stroke-dashoffset:0;stroke-opacity:1"/> <path d="M 45.00964 191.20488 H 56.426999 A 0.216015 0.216015 0 0 1 56.643015 191.420895 V 191.544304 A 0.216015 0.216015 0 0 1 56.426999 191.76032 H 45.00964 A 0.216015 0.216015 0 0 1 44.793625 191.544304 V 191.420895 A 0.216015 0.216015 0 0 1 45.00964 191.20488 Z" style="opacity:1;fill:#cccccc;fill-opacity:1;stroke:none;stroke-width:0.06191194;stroke-linecap:round;stroke-linejoin:round;stroke-miterlimit:4;stroke-dasharray:none;stroke-dashoffset:0;stroke-opacity:1" id="rect4677"/> <path d="M 45.00964 193.428543 H 56.426999 A 0.216015 0.216015 0 0 1 56.643015 193.644559 V 193.767968 A 0.216015 0.216015 0 0 1 56.426999 193.983983 H 45.00964 A 0.216015 0.216015 0 0 1 44.793625 193.767968 V 193.644559 A 0.216015 0.216015 0 0 1 45.00964 193.428543 Z" id="rect4679" style="opacity:1;fill:#cccccc;fill-opacity:1;stroke:none;stroke-width:0.06191194;stroke-linecap:round;stroke-linejoin:round;stroke-miterlimit:4;stroke-dasharray:none;stroke-dashoffset:0;stroke-opacity:1"/> <path d="M 45.00964 195.652206 H 56.426999 A 0.216015 0.216015 0 0 1 56.643015 195.868222 V 195.991631 A 0.216015 0.216015 0 0 1 56.426999 196.207646 H 45.00964 A 0.216015 0.216015 0 0 1 44.793625 195.991631 V 195.868222 A 0.216015 0.216015 0 0 1 45.00964 195.652206 Z" style="opacity:1;fill:#cccccc;fill-opacity:1;stroke:none;stroke-width:0.06191194;stroke-linecap:round;stroke-linejoin:round;stroke-miterlimit:4;stroke-dasharray:none;stroke-dashoffset:0;stroke-opacity:1" id="rect4681"/> <path d="M 45.00964 197.87587 H 56.426999 A 0.216015 0.216015 0 0 1 56.643015 198.091885 V 198.215294 A 0.216015 0.216015 0 0 1 56.426999 198.43131 H 45.00964 A 0.216015 0.216015 0 0 1 44.793625 198.215294 V 198.091885 A 0.216015 0.216015 0 0 1 45.00964 197.87587 Z" id="rect4683" style="opacity:1;fill:#cccccc;fill-opacity:1;stroke:none;stroke-width:0.06191194;stroke-linecap:round;stroke-linejoin:round;stroke-miterlimit:4;stroke-dasharray:none;stroke-dashoffset:0;stroke-opacity:1"/> <path d="M 45.00964 200.099548 H 56.426999 A 0.216015 0.216015 0 0 1 56.643015 200.315564 V 200.438973 A 0.216015 0.216015 0 0 1 56.426999 200.654988 H 45.00964 A 0.216015 0.216015 0 0 1 44.793625 200.438973 V 200.315564 A 0.216015 0.216015 0 0 1 45.00964 200.099548 Z" style="opacity:1;fill:#cccccc;fill-opacity:1;stroke:none;stroke-width:0.06191194;stroke-linecap:round;stroke-linejoin:round;stroke-miterlimit:4;stroke-dasharray:none;stroke-dashoffset:0;stroke-opacity:1" id="rect4685"/> <path d="M 45.00964 202.323212 H 56.426999 A 0.216015 0.216015 0 0 1 56.643015 202.539227 V 202.662636 A 0.216015 0.216015 0 0 1 56.426999 202.878652 H 45.00964 A 0.216015 0.216015 0 0 1 44.793625 202.662636 V 202.539227 A 0.216015 0.216015 0 0 1 45.00964 202.323212 Z" id="rect4687" style="opacity:1;fill:#cccccc;fill-opacity:1;stroke:none;stroke-width:0.06191194;stroke-linecap:round;stroke-linejoin:round;stroke-miterlimit:4;stroke-dasharray:none;stroke-dashoffset:0;stroke-opacity:1"/> <path d="M 45.00964 204.546875 H 56.426999 A 0.216015 0.216015 0 0 1 56.643015 204.76289 V 204.8863 A 0.216015 0.216015 0 0 1 56.426999 205.102315 H 45.00964 A 0.216015 0.216015 0 0 1 44.793625 204.8863 V 204.76289 A 0.216015 0.216015 0 0 1 45.00964 204.546875 Z" style="opacity:1;fill:#cccccc;fill-opacity:1;stroke:none;stroke-width:0.06191194;stroke-linecap:round;stroke-linejoin:round;stroke-miterlimit:4;stroke-dasharray:none;stroke-dashoffset:0;stroke-opacity:1" id="rect4689"/> <path d="M 45.00964 206.770554 H 56.426999 A 0.216015 0.216015 0 0 1 56.643015 206.986569 V 207.109978 A 0.216015 0.216015 0 0 1 56.426999 207.325994 H 45.00964 A 0.216015 0.216015 0 0 1 44.793625 207.109978 V 206.986569 A 0.216015 0.216015 0 0 1 45.00964 206.770554 Z" id="rect4691" style="opacity:1;fill:#cccccc;fill-opacity:1;stroke:none;stroke-width:0.06191194;stroke-linecap:round;stroke-linejoin:round;stroke-miterlimit:4;stroke-dasharray:none;stroke-dashoffset:0;stroke-opacity:1"/> <path d="M 45.00964 208.994232 H 56.426999 A 0.216015 0.216015 0 0 1 56.643015 209.210248 V 209.333657 A 0.216015 0.216015 0 0 1 56.426999 209.549672 H 45.00964 A 0.216015 0.216015 0 0 1 44.793625 209.333657 V 209.210248 A 0.216015 0.216015 0 0 1 45.00964 208.994232 Z" style="opacity:1;fill:#cccccc;fill-opacity:1;stroke:none;stroke-width:0.06191194;stroke-linecap:round;stroke-linejoin:round;stroke-miterlimit:4;stroke-dasharray:none;stroke-dashoffset:0;stroke-opacity:1" id="rect4693"/> <path d="M 45.00964 211.217896 H 56.426999 A 0.216015 0.216015 0 0 1 56.643015 211.433911 V 211.55732 A 0.216015 0.216015 0 0 1 56.426999 211.773336 H 45.00964 A 0.216015 0.216015 0 0 1 44.793625 211.55732 V 211.433911 A 0.216015 0.216015 0 0 1 45.00964 211.217896 Z" id="rect4695" style="opacity:1;fill:#cccccc;fill-opacity:1;stroke:none;stroke-width:0.06191194;stroke-linecap:round;stroke-linejoin:round;stroke-miterlimit:4;stroke-dasharray:none;stroke-dashoffset:0;stroke-opacity:1"/> <g style="stroke-width:0.84461725" id="g4701" transform="matrix(0.69261506,0,0,0.69261506,234.28663,121.0864)"> <path d="M -245.589297 121.243622 H -242.291909 A 0.369261 0.369261 0 0 1 -241.922648 121.612882 V 121.82384 A 0.369261 0.369261 0 0 1 -242.291909 122.193101 H -245.589297 A 0.369261 0.369261 0 0 1 -245.958557 121.82384 V 121.612882 A 0.369261 0.369261 0 0 1 -245.589297 121.243622 Z" style="opacity:1;fill:#ab37c8;fill-opacity:1;stroke:none;stroke-width:0.08938865;stroke-linecap:round;stroke-linejoin:round;stroke-miterlimit:4;stroke-dasharray:none;stroke-dashoffset:0;stroke-opacity:1" id="rect4697"/> <path d="M -239.400637 121.243622 H -234.298835 A 0.369261 0.369261 0 0 1 -233.929574 121.612882 V 121.82384 A 0.369261 0.369261 0 0 1 -234.298835 122.193101 H -239.400637 A 0.369261 0.369261 0 0 1 -239.769897 121.82384 V 121.612882 A 0.369261 0.369261 0 0 1 -239.400637 121.243622 Z" id="rect4699" style="opacity:1;fill:#d4aa00;fill-opacity:1;stroke:none;stroke-width:0.08938865;stroke-linecap:round;stroke-linejoin:round;stroke-miterlimit:4;stroke-dasharray:none;stroke-dashoffset:0;stroke-opacity:1"/> </g> <g style="stroke-width:0.84461725" id="g4709" transform="matrix(0.69261506,0,0,0.69261506,234.28663,121.10814)"> <path d="M -240.297625 124.286331 H -237.000237 A 0.369261 0.369261 0 0 1 -236.630977 124.655592 V 124.866549 A 0.369261 0.369261 0 0 1 -237.000237 125.23581 H -240.297625 A 0.369261 0.369261 0 0 1 -240.666885 124.866549 V 124.655592 A 0.369261 0.369261 0 0 1 -240.297625 124.286331 Z" style="opacity:1;fill:#d4aa00;fill-opacity:1;stroke:none;stroke-width:0.08938865;stroke-linecap:round;stroke-linejoin:round;stroke-miterlimit:4;stroke-dasharray:none;stroke-dashoffset:0;stroke-opacity:1" id="rect4703"/> <path d="M -234.108965 124.286331 H -231.123829 A 0.369261 0.369261 0 0 1 -230.754569 124.655592 V 124.866549 A 0.369261 0.369261 0 0 1 -231.123829 125.23581 H -234.108965 A 0.369261 0.369261 0 0 1 -234.478226 124.866549 V 124.655592 A 0.369261 0.369261 0 0 1 -234.108965 124.286331 Z" id="rect4705" style="opacity:1;fill:#d4aa00;fill-opacity:1;stroke:none;stroke-width:0.08938865;stroke-linecap:round;stroke-linejoin:round;stroke-miterlimit:4;stroke-dasharray:none;stroke-dashoffset:0;stroke-opacity:1"/> <path d="M -227.863939 124.286331 H -222.583504 A 0.369261 0.369261 0 0 1 -222.214243 124.655592 V 124.866549 A 0.369261 0.369261 0 0 1 -222.583504 125.23581 H -227.863939 A 0.369261 0.369261 0 0 1 -228.2332 124.866549 V 124.655592 A 0.369261 0.369261 0 0 1 -227.863939 124.286331 Z" style="opacity:1;fill:#d4aa00;fill-opacity:1;stroke:none;stroke-width:0.08938865;stroke-linecap:round;stroke-linejoin:round;stroke-miterlimit:4;stroke-dasharray:none;stroke-dashoffset:0;stroke-opacity:1" id="rect4707"/> </g> <g style="stroke-width:0.84461725" id="g4719" transform="matrix(0.69261506,0,0,0.69261506,234.28663,121.03825)"> <path d="M -240.297625 127.461327 H -237.000237 A 0.369261 0.369261 0 0 1 -236.630977 127.830587 V 128.041545 A 0.369261 0.369261 0 0 1 -237.000237 128.410805 H -240.297625 A 0.369261 0.369261 0 0 1 -240.666885 128.041545 V 127.830587 A 0.369261 0.369261 0 0 1 -240.297625 127.461327 Z" id="rect4711" style="opacity:1;fill:#d4aa00;fill-opacity:1;stroke:none;stroke-width:0.08938865;stroke-linecap:round;stroke-linejoin:round;stroke-miterlimit:4;stroke-dasharray:none;stroke-dashoffset:0;stroke-opacity:1"/> <path d="M -232.45534 127.461327 H -228.279579 A 0.369261 0.369261 0 0 1 -227.910318 127.830587 V 128.041545 A 0.369261 0.369261 0 0 1 -228.279579 128.410805 H -232.45534 A 0.369261 0.369261 0 0 1 -232.8246 128.041545 V 127.830587 A 0.369261 0.369261 0 0 1 -232.45534 127.461327 Z" style="opacity:1;fill:#d4aa00;fill-opacity:1;stroke:none;stroke-width:0.08938865;stroke-linecap:round;stroke-linejoin:round;stroke-miterlimit:4;stroke-dasharray:none;stroke-dashoffset:0;stroke-opacity:1" id="rect4713"/> <path d="M -225.482699 127.461327 H -220.929868 A 0.369261 0.369261 0 0 1 -220.560607 127.830587 V 128.041545 A 0.369261 0.369261 0 0 1 -220.929868 128.410805 H -225.482699 A 0.369261 0.369261 0 0 1 -225.851959 128.041545 V 127.830587 A 0.369261 0.369261 0 0 1 -225.482699 127.461327 Z" id="rect4715" style="opacity:1;fill:#d4aa00;fill-opacity:1;stroke:none;stroke-width:0.08938865;stroke-linecap:round;stroke-linejoin:round;stroke-miterlimit:4;stroke-dasharray:none;stroke-dashoffset:0;stroke-opacity:1"/> <path d="M -218.206652 127.461327 H -199.895487 A 0.369261 0.369261 0 0 1 -199.526226 127.830587 V 128.041545 A 0.369261 0.369261 0 0 1 -199.895487 128.410805 H -218.206652 A 0.369261 0.369261 0 0 1 -218.575912 128.041545 V 127.830587 A 0.369261 0.369261 0 0 1 -218.206652 127.461327 Z" style="opacity:1;fill:#d4aa00;fill-opacity:1;stroke:none;stroke-width:0.08938864;stroke-linecap:round;stroke-linejoin:round;stroke-miterlimit:4;stroke-dasharray:none;stroke-dashoffset:0;stroke-opacity:1" id="rect4717"/> </g> <g style="stroke-width:0.84461725" transform="matrix(0.69261506,0,0,0.69261506,234.28663,127.95844)" id="g4725"> <path d="M -245.589297 121.243622 H -242.291909 A 0.369261 0.369261 0 0 1 -241.922648 121.612882 V 121.82384 A 0.369261 0.369261 0 0 1 -242.291909 122.193101 H -245.589297 A 0.369261 0.369261 0 0 1 -245.958557 121.82384 V 121.612882 A 0.369261 0.369261 0 0 1 -245.589297 121.243622 Z" id="rect4721" style="opacity:1;fill:#ab37c8;fill-opacity:1;stroke:none;stroke-width:0.08938865;stroke-linecap:round;stroke-linejoin:round;stroke-miterlimit:4;stroke-dasharray:none;stroke-dashoffset:0;stroke-opacity:1"/> <path d="M -239.400637 121.243622 H -234.298835 A 0.369261 0.369261 0 0 1 -233.929574 121.612882 V 121.82384 A 0.369261 0.369261 0 0 1 -234.298835 122.193101 H -239.400637 A 0.369261 0.369261 0 0 1 -239.769897 121.82384 V 121.612882 A 0.369261 0.369261 0 0 1 -239.400637 121.243622 Z" style="opacity:1;fill:#d4aa00;fill-opacity:1;stroke:none;stroke-width:0.08938865;stroke-linecap:round;stroke-linejoin:round;stroke-miterlimit:4;stroke-dasharray:none;stroke-dashoffset:0;stroke-opacity:1" id="rect4723"/> </g> <g style="stroke-width:0.84461725" id="g4733" transform="matrix(0.69261506,0,0,0.69261506,234.28663,114.18892)"> <path d="M 222.38191 145.211578 H 225.679298 A 0.369261 0.369261 0 0 1 226.048558 145.580839 V 145.791797 A 0.369261 0.369261 0 0 1 225.679298 146.161057 H 222.38191 A 0.369261 0.369261 0 0 1 222.01265 145.791797 V 145.580839 A 0.369261 0.369261 0 0 1 222.38191 145.211578 Z" style="opacity:1;fill:#5aa02c;fill-opacity:1;stroke:none;stroke-width:0.08938865;stroke-linecap:round;stroke-linejoin:round;stroke-miterlimit:4;stroke-dasharray:none;stroke-dashoffset:0;stroke-opacity:1" id="rect4727" transform="scale(-1,1)"/> <path d="M 237.910429 145.211578 H 245.590444 A 0.369261 0.369261 0 0 1 245.959704 145.580839 V 145.791797 A 0.369261 0.369261 0 0 1 245.590444 146.161057 H 237.910429 A 0.369261 0.369261 0 0 1 237.541168 145.791797 V 145.580839 A 0.369261 0.369261 0 0 1 237.910429 145.211578 Z" id="rect4729" style="opacity:1;fill:#5aa02c;fill-opacity:1;stroke:none;stroke-width:0.08938866;stroke-linecap:round;stroke-linejoin:round;stroke-miterlimit:4;stroke-dasharray:none;stroke-dashoffset:0;stroke-opacity:1" transform="scale(-1,1)"/> <path d="M 227.85626 145.211578 H 235.536275 A 0.369261 0.369261 0 0 1 235.905536 145.580839 V 145.791797 A 0.369261 0.369261 0 0 1 235.536275 146.161057 H 227.85626 A 0.369261 0.369261 0 0 1 227.487 145.791797 V 145.580839 A 0.369261 0.369261 0 0 1 227.85626 145.211578 Z" transform="scale(-1,1)" style="opacity:1;fill:#5aa02c;fill-opacity:1;stroke:none;stroke-width:0.08938866;stroke-linecap:round;stroke-linejoin:round;stroke-miterlimit:4;stroke-dasharray:none;stroke-dashoffset:0;stroke-opacity:1" id="rect4731"/> </g> <path d="M 85.446579 220.805878 H 95.352488 V 222.887806 H 85.446579 V 220.805878 Z" id="rect4843" style="opacity:0.61400003;fill:#191919;fill-opacity:1;stroke:none;stroke-width:0.06191194;stroke-linecap:round;stroke-linejoin:round;stroke-miterlimit:4;stroke-dasharray:none;stroke-dashoffset:0;stroke-opacity:1"/> <path d="m 60.701721,174.93758 h 1.157314 v 42.19838 h -1.157314 z m -17.166706,-6.13773 h 18.323959 v 6.30728 H 43.535015 Z" style="opacity:1;fill:#646464;fill-opacity:1;stroke:none;stroke-width:0.04232509;stroke-linecap:round;stroke-linejoin:round;stroke-miterlimit:4;stroke-dasharray:none;stroke-dashoffset:0;stroke-opacity:1" id="rect4716"/> <path d="M 45.369681 171.226273 H 55.903385 A 0.44163 0.44163 0 0 1 56.345016 171.667903 V 171.920205 A 0.44163 0.44163 0 0 1 55.903385 172.361835 H 45.369681 A 0.44163 0.44163 0 0 1 44.928051 171.920205 V 171.667903 A 0.44163 0.44163 0 0 1 45.369681 171.226273 Z" style="opacity:1;fill:#cccccc;fill-opacity:1;stroke:none;stroke-width:0.10620318;stroke-linecap:round;stroke-linejoin:round;stroke-miterlimit:4;stroke-dasharray:none;stroke-dashoffset:0;stroke-opacity:1" id="rect4714"/> <path d="M 183.957183 -61.859028 H 186.054491 A 0.450087 0.450087 0 0 1 186.504579 -61.40894 V -61.151807 A 0.450087 0.450087 0 0 1 186.054491 -60.701719 H 183.957183 A 0.450087 0.450087 0 0 1 183.507095 -61.151807 V -61.40894 A 0.450087 0.450087 0 0 1 183.957183 -61.859028 Z" id="rect4718" style="opacity:1;fill:#9a9a9a;fill-opacity:1;stroke:none;stroke-width:0.07423273;stroke-linecap:round;stroke-linejoin:round;stroke-miterlimit:4;stroke-dasharray:none;stroke-dashoffset:0;stroke-opacity:1" transform="rotate(90)"/> </g> <g id="g6043"> <path id="rect4674" d="m 248.14757,220.72739 c -0.5579,0 -1.00696,0.61143 -1.00696,1.37108 v 9.61628 c 0,0.75963 0.44906,1.37107 1.00696,1.37107 h 5.51437 c 0.5579,0 1.00696,-0.61144 1.00696,-1.37107 v -9.61628 c 0,-0.75965 -0.44906,-1.37108 -1.00696,-1.37108 z m 0.61769,2.14973 h 3.83171 c 0.38767,0 0.69976,0.46146 0.69976,1.03446 v 6.10495 c 0,0.57298 -0.31209,1.03402 -0.69976,1.03402 h -3.83171 c -0.38767,0 -0.69976,-0.46104 -0.69976,-1.03402 v -6.10495 c 0,-0.573 0.31209,-1.03446 0.69976,-1.03446 z" style="opacity:1;fill:#dadada;fill-opacity:1;stroke:none;stroke-width:0.06191194;stroke-linecap:round;stroke-linejoin:round;stroke-miterlimit:4;stroke-dasharray:none;stroke-dashoffset:0;stroke-opacity:1"/> <path id="rect4672" d="m 234.02693,217.17021 v 18.45496 c 0,0.56389 0.45395,1.01784 1.01784,1.01784 h 13.96886 c 0.56389,0 1.01816,-0.45395 1.01816,-1.01784 v -18.45496 z" style="opacity:1;fill:#f4f4f4;fill-opacity:1;stroke:none;stroke-width:0.06191194;stroke-linecap:round;stroke-linejoin:round;stroke-miterlimit:4;stroke-dasharray:none;stroke-dashoffset:0;stroke-opacity:1"/> <path id="rect4680" d="M 241.89828,217.17021 V 236.643 h -6.85351 c -0.56389,0 -1.01784,-0.45394 -1.01784,-1.01783 v -18.45496 z" style="opacity:1;fill:#cccccc;fill-opacity:0.53308835;stroke:none;stroke-width:0.06191194;stroke-linecap:round;stroke-linejoin:round;stroke-miterlimit:4;stroke-dasharray:none;stroke-dashoffset:0;stroke-opacity:1"/> <path id="path4723" d="m 241.99637,197.00309 c 0.26075,0.19749 -0.40244,1.55773 -1.61832,3.47791 0,0 0,0 0,0 -0.1989,0.66775 -0.32568,1.49821 -0.0287,2.11214 0.23853,0.82282 1.08934,1.47038 2.1703,2.12037 0.13981,0.072 0.27896,0.14979 0.41669,0.23357 1.27297,0.77436 2.25341,1.9492 2.65371,3.37665 0.32753,1.45783 -0.0149,2.77607 -0.47589,3.72218 l 0,0 c -0.55257,1.16585 -1.2862,2.01025 -1.82598,2.51318 l 0,0 c -0.31947,0.29895 -0.60156,0.5071 -0.82011,0.62798 l 0,0 c 0,0 0,0 0,0 -0.11646,0.065 -0.21472,0.10524 -0.29317,0.12142 l 0,0 0,0 c -0.0735,-0.0252 -0.11771,-0.0331 -0.1438,-0.0342 0,0 0,0 0,0 -0.0255,-0.001 -0.0337,0.005 -0.0346,0.005 0,0 0,0 0,0 0,0 0,0 0,0 0,0 0,0 0,0 0,0 0,0 0,0 0,0 0,0 0,0 0,0 0,0 0,0 0,0 0,0 0,0 0,0 0,0 0,0 0,0 0,0 0,0 0,0 0,0 0,0 -9e-5,7e-5 -8e-5,6e-5 -8e-5,6e-5 0,0 -1e-5,1e-5 6e-5,-8e-5 0,0 0,0 0,0 0,0 0,0 0,0 0,0 0,0 0,0 0,0 0,0 0,0 0,0 0,0 0,0 0,0 0,0 0,0 0,0 0,0 0,0 0,0 0,0 0,0 0,0 0,0 0,0 0,0 0,0 0,0 8e-4,-9.7e-4 0.006,-0.009 0.005,-0.0346 0,0 0,0 0,0 -0.002,-0.026 -0.0114,-0.0701 -0.0397,-0.14329 l 0,0 0,0 c 0.01,-0.0771 0.0385,-0.17484 0.0828,-0.29079 0,0 0,0 0,0 l 0,0 c 0.0865,-0.22303 0.2325,-0.51763 0.41445,-0.88044 l 0,0 c 0.29551,-0.59181 0.77949,-1.52775 1.06177,-2.50377 l 0,0 c 0.21675,-0.79655 0.37707,-1.77981 0.0911,-2.55966 -0.20719,-0.78435 -0.90665,-1.46335 -1.83473,-2.06499 -0.10021,-0.065 -0.20165,-0.12806 -0.30347,-0.18921 -1.40605,-0.7204 -2.56794,-1.90689 -3.03805,-3.44534 -0.30502,-1.3972 0.0571,-2.645 0.53733,-3.51322 0,0 0,0 0,0 1.62636,-1.83058 2.7622,-2.84954 3.02388,-2.65134 z" style="fill:#e0e0e0;fill-opacity:0.66176471;stroke:none;stroke-width:0.04196643;stroke-linecap:butt;stroke-linejoin:miter;stroke-miterlimit:4;stroke-dasharray:none;stroke-opacity:1"/> </g> <g id="g4812"> <path d="M 112.51318 147.356964 H 228.867871 A 3.041958 3.041958 0 0 1 231.909828 150.398922 V 211.434323 A 3.041958 3.041958 0 0 1 228.867871 214.47628 H 112.51318 A 3.041958 3.041958 0 0 1 109.471222 211.434323 V 150.398922 A 3.041958 3.041958 0 0 1 112.51318 147.356964 Z" id="rect4485" style="opacity:1;fill:#0f1938;fill-opacity:1;stroke:none;stroke-width:0.06796893;stroke-linecap:round;stroke-linejoin:round;stroke-miterlimit:4;stroke-dasharray:none;stroke-dashoffset:0;stroke-opacity:1"/> <path id="rect4487" d="m 162.69823,214.44705 -3.46156,20.67431 h 11.45383 11.45383 l -3.46156,-20.67431 h -7.99227 z" style="opacity:1;fill:#d8d8d8;fill-opacity:1;stroke:none;stroke-width:0.06796893;stroke-linecap:round;stroke-linejoin:round;stroke-miterlimit:4;stroke-dasharray:none;stroke-dashoffset:0;stroke-opacity:1"/> <path d="M 114.364291 150.398911 H 227.016775 A 0.785021 0.785021 0 0 1 227.801796 151.183932 V 202.30845 A 0.785021 0.785021 0 0 1 227.016775 203.093472 H 114.364291 A 0.785021 0.785021 0 0 1 113.579269 202.30845 V 151.183932 A 0.785021 0.785021 0 0 1 114.364291 150.398911 Z" style="opacity:1;fill:#ffffff;fill-opacity:1;stroke:none;stroke-width:0.06796893;stroke-linecap:round;stroke-linejoin:round;stroke-miterlimit:4;stroke-dasharray:none;stroke-dashoffset:0;stroke-opacity:1" id="rect4507"/> <path d="M 113.562057 201.229034 H 227.801826 V 203.093475 H 113.562057 V 201.229034 Z" id="rect4495" style="opacity:1;fill:#6c5353;fill-opacity:1;stroke:none;stroke-width:0.06797431;stroke-linecap:round;stroke-linejoin:round;stroke-miterlimit:4;stroke-dasharray:none;stroke-dashoffset:0;stroke-opacity:1"/> <path d="M 113.562057 190.90683 H 227.801811 V 201.229035 H 113.562057 V 190.90683 Z" id="rect4497" style="opacity:1;fill:#f9f9f9;fill-opacity:1;stroke:none;stroke-width:0.06796893;stroke-linecap:round;stroke-linejoin:round;stroke-miterlimit:4;stroke-dasharray:none;stroke-dashoffset:0;stroke-opacity:1"/> <path d="M 113.579269 189.165436 H 227.801796 V 191.029861 H 113.579269 V 189.165436 Z" style="opacity:1;fill:#cccccc;fill-opacity:1;stroke:none;stroke-width:0.03398446;stroke-linecap:round;stroke-linejoin:round;stroke-miterlimit:4;stroke-dasharray:none;stroke-dashoffset:0;stroke-opacity:1" id="rect4499"/> <path d="M 206.255875 191.035477 H 207.38432 V 201.230819 H 206.255875 V 191.035477 Z" id="rect4501" style="opacity:1;fill:#ececec;fill-opacity:1;stroke:none;stroke-width:0.06796893;stroke-linecap:round;stroke-linejoin:round;stroke-miterlimit:4;stroke-dasharray:none;stroke-dashoffset:0;stroke-opacity:1"/> <path d="M 115.986867 192.509384 H 118.104535 A 0.237149 0.237149 0 0 1 118.341684 192.746533 V 192.882015 A 0.237149 0.237149 0 0 1 118.104535 193.119164 H 115.986867 A 0.237149 0.237149 0 0 1 115.749718 192.882015 V 192.746533 A 0.237149 0.237149 0 0 1 115.986867 192.509384 Z" id="rect4503" style="opacity:1;fill:#ab37c8;fill-opacity:1;stroke:none;stroke-width:0.06796893;stroke-linecap:round;stroke-linejoin:round;stroke-miterlimit:4;stroke-dasharray:none;stroke-dashoffset:0;stroke-opacity:1"/> <path d="M 119.961377 192.509384 H 121.878509 A 0.237149 0.237149 0 0 1 122.115658 192.746533 V 192.882015 A 0.237149 0.237149 0 0 1 121.878509 193.119164 H 119.961377 A 0.237149 0.237149 0 0 1 119.724228 192.882015 V 192.746533 A 0.237149 0.237149 0 0 1 119.961377 192.509384 Z" style="opacity:1;fill:#ff7f2a;fill-opacity:1;stroke:none;stroke-width:0.06796893;stroke-linecap:round;stroke-linejoin:round;stroke-miterlimit:4;stroke-dasharray:none;stroke-dashoffset:0;stroke-opacity:1" id="rect4505"/> <path d="M 123.972096 192.509384 H 132.206116 A 0.237149 0.237149 0 0 1 132.443265 192.746533 V 192.882015 A 0.237149 0.237149 0 0 1 132.206116 193.119164 H 123.972096 A 0.237149 0.237149 0 0 1 123.734947 192.882015 V 192.746533 A 0.237149 0.237149 0 0 1 123.972096 192.509384 Z" id="rect4508" style="opacity:1;fill:#2a7fff;fill-opacity:1;stroke:none;stroke-width:0.06796893;stroke-linecap:round;stroke-linejoin:round;stroke-miterlimit:4;stroke-dasharray:none;stroke-dashoffset:0;stroke-opacity:1"/> <path d="M 115.986867 194.392746 H 118.104535 A 0.237149 0.237149 0 0 1 118.341684 194.629895 V 194.765377 A 0.237149 0.237149 0 0 1 118.104535 195.002526 H 115.986867 A 0.237149 0.237149 0 0 1 115.749718 194.765377 V 194.629895 A 0.237149 0.237149 0 0 1 115.986867 194.392746 Z" style="opacity:1;fill:#ab37c8;fill-opacity:1;stroke:none;stroke-width:0.06796893;stroke-linecap:round;stroke-linejoin:round;stroke-miterlimit:4;stroke-dasharray:none;stroke-dashoffset:0;stroke-opacity:1" id="rect4510"/> <path d="M 119.961377 194.392746 H 121.878509 A 0.237149 0.237149 0 0 1 122.115658 194.629895 V 194.765377 A 0.237149 0.237149 0 0 1 121.878509 195.002526 H 119.961377 A 0.237149 0.237149 0 0 1 119.724228 194.765377 V 194.629895 A 0.237149 0.237149 0 0 1 119.961377 194.392746 Z" id="rect4512" style="opacity:1;fill:#ff7f2a;fill-opacity:1;stroke:none;stroke-width:0.06796893;stroke-linecap:round;stroke-linejoin:round;stroke-miterlimit:4;stroke-dasharray:none;stroke-dashoffset:0;stroke-opacity:1"/> <path d="M 123.972096 194.392746 H 125.966896 A 0.237149 0.237149 0 0 1 126.204045 194.629895 V 194.765377 A 0.237149 0.237149 0 0 1 125.966896 195.002526 H 123.972096 A 0.237149 0.237149 0 0 1 123.734947 194.765377 V 194.629895 A 0.237149 0.237149 0 0 1 123.972096 194.392746 Z" style="opacity:1;fill:#2a7fff;fill-opacity:1;stroke:none;stroke-width:0.06796893;stroke-linecap:round;stroke-linejoin:round;stroke-miterlimit:4;stroke-dasharray:none;stroke-dashoffset:0;stroke-opacity:1" id="rect4514"/> <path d="M 128.142796 194.392746 H 131.974235 A 0.237149 0.237149 0 0 1 132.211383 194.629895 V 194.765377 A 0.237149 0.237149 0 0 1 131.974235 195.002526 H 128.142796 A 0.237149 0.237149 0 0 1 127.905647 194.765377 V 194.629895 A 0.237149 0.237149 0 0 1 128.142796 194.392746 Z" style="opacity:1;fill:#ff7f2a;fill-opacity:1;stroke:none;stroke-width:0.06796893;stroke-linecap:round;stroke-linejoin:round;stroke-miterlimit:4;stroke-dasharray:none;stroke-dashoffset:0;stroke-opacity:1" id="rect4516"/> <path d="M 134.382031 194.392746 H 144.59449 A 0.237149 0.237149 0 0 1 144.831639 194.629895 V 194.765377 A 0.237149 0.237149 0 0 1 144.59449 195.002526 H 134.382031 A 0.237149 0.237149 0 0 1 134.144882 194.765377 V 194.629895 A 0.237149 0.237149 0 0 1 134.382031 194.392746 Z" id="rect4518" style="opacity:1;fill:#333333;fill-opacity:1;stroke:none;stroke-width:0.06796893;stroke-linecap:round;stroke-linejoin:round;stroke-miterlimit:4;stroke-dasharray:none;stroke-dashoffset:0;stroke-opacity:1"/> <path d="M 146.376126 194.392746 H 148.493794 A 0.237149 0.237149 0 0 1 148.730943 194.629895 V 194.765377 A 0.237149 0.237149 0 0 1 148.493794 195.002526 H 146.376126 A 0.237149 0.237149 0 0 1 146.138977 194.765377 V 194.629895 A 0.237149 0.237149 0 0 1 146.376126 194.392746 Z" id="rect4520" style="opacity:1;fill:#ab37c8;fill-opacity:1;stroke:none;stroke-width:0.06796893;stroke-linecap:round;stroke-linejoin:round;stroke-miterlimit:4;stroke-dasharray:none;stroke-dashoffset:0;stroke-opacity:1"/> <path d="M 134.562726 192.509384 H 136.680394 A 0.237149 0.237149 0 0 1 136.917543 192.746533 V 192.882015 A 0.237149 0.237149 0 0 1 136.680394 193.119164 H 134.562726 A 0.237149 0.237149 0 0 1 134.325577 192.882015 V 192.746533 A 0.237149 0.237149 0 0 1 134.562726 192.509384 Z" style="opacity:1;fill:#ab37c8;fill-opacity:1;stroke:none;stroke-width:0.06796893;stroke-linecap:round;stroke-linejoin:round;stroke-miterlimit:4;stroke-dasharray:none;stroke-dashoffset:0;stroke-opacity:1" id="rect4522"/> <path d="M 117.789158 196.006989 H 121.436128 A 0.237149 0.237149 0 0 1 121.673276 196.244137 V 196.37962 A 0.237149 0.237149 0 0 1 121.436128 196.616769 H 117.789158 A 0.237149 0.237149 0 0 1 117.55201 196.37962 V 196.244137 A 0.237149 0.237149 0 0 1 117.789158 196.006989 Z" id="rect4509" style="opacity:1;fill:#ab37c8;fill-opacity:1;stroke:none;stroke-width:0.06796893;stroke-linecap:round;stroke-linejoin:round;stroke-miterlimit:4;stroke-dasharray:none;stroke-dashoffset:0;stroke-opacity:1"/> <path d="M 123.165547 196.049469 H 129.075854 A 0.237149 0.237149 0 0 1 129.313003 196.286618 V 196.4221 A 0.237149 0.237149 0 0 1 129.075854 196.659249 H 123.165547 A 0.237149 0.237149 0 0 1 122.928398 196.4221 V 196.286618 A 0.237149 0.237149 0 0 1 123.165547 196.049469 Z" style="opacity:1;fill:#ff7f2a;fill-opacity:1;stroke:none;stroke-width:0.06796893;stroke-linecap:round;stroke-linejoin:round;stroke-miterlimit:4;stroke-dasharray:none;stroke-dashoffset:0;stroke-opacity:1" id="rect4511"/> <path d="M 130.514691 196.049469 H 132.431823 A 0.237149 0.237149 0 0 1 132.668972 196.286618 V 196.4221 A 0.237149 0.237149 0 0 1 132.431823 196.659249 H 130.514691 A 0.237149 0.237149 0 0 1 130.277542 196.4221 V 196.286618 A 0.237149 0.237149 0 0 1 130.514691 196.049469 Z" style="opacity:1;fill:#ff7f2a;fill-opacity:1;stroke:none;stroke-width:0.06796893;stroke-linecap:round;stroke-linejoin:round;stroke-miterlimit:4;stroke-dasharray:none;stroke-dashoffset:0;stroke-opacity:1" id="rect4513"/> <path d="M 133.762936 196.091949 H 136.116487 A 0.237149 0.237149 0 0 1 136.353636 196.329098 V 196.464581 A 0.237149 0.237149 0 0 1 136.116487 196.70173 H 133.762936 A 0.237149 0.237149 0 0 1 133.525787 196.464581 V 196.329098 A 0.237149 0.237149 0 0 1 133.762936 196.091949 Z" style="opacity:1;fill:#333333;fill-opacity:1;stroke:none;stroke-width:0.06796893;stroke-linecap:round;stroke-linejoin:round;stroke-miterlimit:4;stroke-dasharray:none;stroke-dashoffset:0;stroke-opacity:1" id="rect4515"/> <path d="M 137.501217 196.091949 H 141.553992 A 0.237149 0.237149 0 0 1 141.791141 196.329098 V 196.464581 A 0.237149 0.237149 0 0 1 141.553992 196.70173 H 137.501217 A 0.237149 0.237149 0 0 1 137.264069 196.464581 V 196.329098 A 0.237149 0.237149 0 0 1 137.501217 196.091949 Z" id="rect4517" style="opacity:1;fill:#333333;fill-opacity:1;stroke:none;stroke-width:0.06796893;stroke-linecap:round;stroke-linejoin:round;stroke-miterlimit:4;stroke-dasharray:none;stroke-dashoffset:0;stroke-opacity:1"/> <path d="M 142.979031 196.134445 H 145.016312 A 0.237149 0.237149 0 0 1 145.253461 196.371594 V 196.507076 A 0.237149 0.237149 0 0 1 145.016312 196.744225 H 142.979031 A 0.237149 0.237149 0 0 1 142.741882 196.507076 V 196.371594 A 0.237149 0.237149 0 0 1 142.979031 196.134445 Z" id="rect4519" style="opacity:1;fill:#2a7fff;fill-opacity:1;stroke:none;stroke-width:0.06796893;stroke-linecap:round;stroke-linejoin:round;stroke-miterlimit:4;stroke-dasharray:none;stroke-dashoffset:0;stroke-opacity:1"/> <path d="M 146.479214 196.219406 H 149.913781 A 0.237149 0.237149 0 0 1 150.150929 196.456555 V 196.592037 A 0.237149 0.237149 0 0 1 149.913781 196.829186 H 146.479214 A 0.237149 0.237149 0 0 1 146.242065 196.592037 V 196.456555 A 0.237149 0.237149 0 0 1 146.479214 196.219406 Z" style="opacity:1;fill:#ab37c8;fill-opacity:1;stroke:none;stroke-width:0.06796893;stroke-linecap:round;stroke-linejoin:round;stroke-miterlimit:4;stroke-dasharray:none;stroke-dashoffset:0;stroke-opacity:1" id="rect4521"/> <path d="M 115.986867 198.046066 H 118.104535 A 0.237149 0.237149 0 0 1 118.341684 198.283215 V 198.418698 A 0.237149 0.237149 0 0 1 118.104535 198.655846 H 115.986867 A 0.237149 0.237149 0 0 1 115.749718 198.418698 V 198.283215 A 0.237149 0.237149 0 0 1 115.986867 198.046066 Z" id="rect4523" style="opacity:1;fill:#ab37c8;fill-opacity:1;stroke:none;stroke-width:0.06796893;stroke-linecap:round;stroke-linejoin:round;stroke-miterlimit:4;stroke-dasharray:none;stroke-dashoffset:0;stroke-opacity:1"/> <path d="M 119.961377 198.046066 H 121.878509 A 0.237149 0.237149 0 0 1 122.115658 198.283215 V 198.418698 A 0.237149 0.237149 0 0 1 121.878509 198.655846 H 119.961377 A 0.237149 0.237149 0 0 1 119.724228 198.418698 V 198.283215 A 0.237149 0.237149 0 0 1 119.961377 198.046066 Z" style="opacity:1;fill:#ff7f2a;fill-opacity:1;stroke:none;stroke-width:0.06796893;stroke-linecap:round;stroke-linejoin:round;stroke-miterlimit:4;stroke-dasharray:none;stroke-dashoffset:0;stroke-opacity:1" id="rect4525"/> <path d="M 124.064656 198.046066 H 127.896094 A 0.237149 0.237149 0 0 1 128.133243 198.283215 V 198.418698 A 0.237149 0.237149 0 0 1 127.896094 198.655846 H 124.064656 A 0.237149 0.237149 0 0 1 123.827507 198.418698 V 198.283215 A 0.237149 0.237149 0 0 1 124.064656 198.046066 Z" id="rect4527" style="opacity:1;fill:#333333;fill-opacity:1;stroke:none;stroke-width:0.06796893;stroke-linecap:round;stroke-linejoin:round;stroke-miterlimit:4;stroke-dasharray:none;stroke-dashoffset:0;stroke-opacity:1"/> <path d="M 130.132901 198.046066 H 132.250569 A 0.237149 0.237149 0 0 1 132.487718 198.283215 V 198.418698 A 0.237149 0.237149 0 0 1 132.250569 198.655846 H 130.132901 A 0.237149 0.237149 0 0 1 129.895752 198.418698 V 198.283215 A 0.237149 0.237149 0 0 1 130.132901 198.046066 Z" style="opacity:1;fill:#ab37c8;fill-opacity:1;stroke:none;stroke-width:0.06796893;stroke-linecap:round;stroke-linejoin:round;stroke-miterlimit:4;stroke-dasharray:none;stroke-dashoffset:0;stroke-opacity:1" id="rect4529"/> <path d="M 192.427261 -207.305222 H 194.670075 A 0.377335 0.377335 0 0 1 195.04741 -206.927887 V -206.712316 A 0.377335 0.377335 0 0 1 194.670075 -206.334982 H 192.427261 A 0.377335 0.377335 0 0 1 192.049927 -206.712316 V -206.927887 A 0.377335 0.377335 0 0 1 192.427261 -207.305222 Z" transform="rotate(90)" style="opacity:1;fill:#cccccc;fill-opacity:1;stroke:none;stroke-width:0.06796893;stroke-linecap:round;stroke-linejoin:round;stroke-miterlimit:4;stroke-dasharray:none;stroke-dashoffset:0;stroke-opacity:1" id="rect4531"/> <path d="M -210.452588 -192.844315 H -208.88001 A 0.245166 0.245166 0 0 1 -208.634843 -192.599148 V -192.459086 A 0.245166 0.245166 0 0 1 -208.88001 -192.213919 H -210.452588 A 0.245166 0.245166 0 0 1 -210.697754 -192.459086 V -192.599148 A 0.245166 0.245166 0 0 1 -210.452588 -192.844315 Z" id="rect4533" style="opacity:1;fill:#4d4d4d;fill-opacity:1;stroke:none;stroke-width:0.06796893;stroke-linecap:round;stroke-linejoin:round;stroke-miterlimit:4;stroke-dasharray:none;stroke-dashoffset:0;stroke-opacity:1" transform="scale(-1)"/> <path d="M -211.472119 -194.118744 H -209.899541 A 0.245166 0.245166 0 0 1 -209.654375 -193.873578 V -193.733515 A 0.245166 0.245166 0 0 1 -209.899541 -193.488349 H -211.472119 A 0.245166 0.245166 0 0 1 -211.717285 -193.733515 V -193.873578 A 0.245166 0.245166 0 0 1 -211.472119 -194.118744 Z" transform="scale(-1)" style="opacity:1;fill:#ff0066;fill-opacity:1;stroke:none;stroke-width:0.06796893;stroke-linecap:round;stroke-linejoin:round;stroke-miterlimit:4;stroke-dasharray:none;stroke-dashoffset:0;stroke-opacity:1" id="rect4537"/> <path d="M -214.403287 -194.118744 H -212.830708 A 0.245166 0.245166 0 0 1 -212.585542 -193.873578 V -193.733515 A 0.245166 0.245166 0 0 1 -212.830708 -193.488349 H -214.403287 A 0.245166 0.245166 0 0 1 -214.648453 -193.733515 V -193.873578 A 0.245166 0.245166 0 0 1 -214.403287 -194.118744 Z" id="rect4539" style="opacity:1;fill:#4d4d4d;fill-opacity:1;stroke:none;stroke-width:0.06796893;stroke-linecap:round;stroke-linejoin:round;stroke-miterlimit:4;stroke-dasharray:none;stroke-dashoffset:0;stroke-opacity:1" transform="scale(-1)"/> <path d="M -212.534131 -195.648041 H -209.899538 A 0.245166 0.245166 0 0 1 -209.654372 -195.402875 V -195.262812 A 0.245166 0.245166 0 0 1 -209.899538 -195.017646 H -212.534131 A 0.245166 0.245166 0 0 1 -212.779297 -195.262812 V -195.402875 A 0.245166 0.245166 0 0 1 -212.534131 -195.648041 Z" id="rect4541" style="opacity:1;fill:#ff0066;fill-opacity:1;stroke:none;stroke-width:0.06796893;stroke-linecap:round;stroke-linejoin:round;stroke-miterlimit:4;stroke-dasharray:none;stroke-dashoffset:0;stroke-opacity:1" transform="scale(-1)"/> <path d="M -216.060025 -195.648041 H -214.487447 A 0.245166 0.245166 0 0 1 -214.24228 -195.402875 V -195.262812 A 0.245166 0.245166 0 0 1 -214.487447 -195.017646 H -216.060025 A 0.245166 0.245166 0 0 1 -216.305191 -195.262812 V -195.402875 A 0.245166 0.245166 0 0 1 -216.060025 -195.648041 Z" transform="scale(-1)" style="opacity:1;fill:#4d4d4d;fill-opacity:1;stroke:none;stroke-width:0.06796893;stroke-linecap:round;stroke-linejoin:round;stroke-miterlimit:4;stroke-dasharray:none;stroke-dashoffset:0;stroke-opacity:1" id="rect4543"/> <path d="M -211.896939 -196.92247 H -209.899555 A 0.245166 0.245166 0 0 1 -209.654388 -196.677304 V -196.537241 A 0.245166 0.245166 0 0 1 -209.899555 -196.292075 H -211.896939 A 0.245166 0.245166 0 0 1 -212.142105 -196.537241 V -196.677304 A 0.245166 0.245166 0 0 1 -211.896939 -196.92247 Z" id="rect4545" style="opacity:1;fill:#ff0066;fill-opacity:1;stroke:none;stroke-width:0.06796893;stroke-linecap:round;stroke-linejoin:round;stroke-miterlimit:4;stroke-dasharray:none;stroke-dashoffset:0;stroke-opacity:1" transform="scale(-1)"/> <path d="M -214.105923 -196.964951 H -213.170554 A 0.245166 0.245166 0 0 1 -212.925388 -196.719784 V -196.579722 A 0.245166 0.245166 0 0 1 -213.170554 -196.334555 H -214.105923 A 0.245166 0.245166 0 0 1 -214.351089 -196.579722 V -196.719784 A 0.245166 0.245166 0 0 1 -214.105923 -196.964951 Z" transform="scale(-1)" style="opacity:1;fill:#4d4d4d;fill-opacity:1;stroke:none;stroke-width:0.06796893;stroke-linecap:round;stroke-linejoin:round;stroke-miterlimit:4;stroke-dasharray:none;stroke-dashoffset:0;stroke-opacity:1" id="rect4547"/> <path d="M -210.452588 -199.343857 H -208.88001 A 0.245166 0.245166 0 0 1 -208.634843 -199.098691 V -198.958628 A 0.245166 0.245166 0 0 1 -208.88001 -198.713462 H -210.452588 A 0.245166 0.245166 0 0 1 -210.697754 -198.958628 V -199.098691 A 0.245166 0.245166 0 0 1 -210.452588 -199.343857 Z" transform="scale(-1)" style="opacity:1;fill:#4d4d4d;fill-opacity:1;stroke:none;stroke-width:0.06796893;stroke-linecap:round;stroke-linejoin:round;stroke-miterlimit:4;stroke-dasharray:none;stroke-dashoffset:0;stroke-opacity:1" id="rect4549"/> <path d="M -211.302197 -200.53331 H -209.899541 A 0.245166 0.245166 0 0 1 -209.654375 -200.288144 V -200.148081 A 0.245166 0.245166 0 0 1 -209.899541 -199.902915 H -211.302197 A 0.245166 0.245166 0 0 1 -211.547363 -200.148081 V -200.288144 A 0.245166 0.245166 0 0 1 -211.302197 -200.53331 Z" transform="scale(-1)" style="opacity:1;fill:#ff0066;fill-opacity:1;stroke:none;stroke-width:0.06796893;stroke-linecap:round;stroke-linejoin:round;stroke-miterlimit:4;stroke-dasharray:none;stroke-dashoffset:0;stroke-opacity:1" id="rect4551"/> <path d="M -214.105923 -200.57579 H -212.575826 A 0.245166 0.245166 0 0 1 -212.330659 -200.330624 V -200.190561 A 0.245166 0.245166 0 0 1 -212.575826 -199.945395 H -214.105923 A 0.245166 0.245166 0 0 1 -214.351089 -200.190561 V -200.330624 A 0.245166 0.245166 0 0 1 -214.105923 -200.57579 Z" id="rect4553" style="opacity:1;fill:#4d4d4d;fill-opacity:1;stroke:none;stroke-width:0.06796893;stroke-linecap:round;stroke-linejoin:round;stroke-miterlimit:4;stroke-dasharray:none;stroke-dashoffset:0;stroke-opacity:1" transform="scale(-1)"/> <path style="opacity:1;fill:#70737e;fill-opacity:1;stroke:none;stroke-width:0.06796893;stroke-linecap:round;stroke-linejoin:round;stroke-miterlimit:4;stroke-dasharray:none;stroke-dashoffset:0;stroke-opacity:1" d="m 146.10015,234.9603 c -0.22624,0 -0.2655,0.14141 -0.40836,0.24789 l -1.59264,1.18694 c -0.14288,0.10647 0.18212,0.24788 0.40835,0.24788 h 23.15177 6.06208 23.15214 c 0.22624,0 0.55124,-0.14141 0.40836,-0.24788 l -1.59264,-1.18694 c -0.14287,-0.10648 -0.18212,-0.24789 -0.40835,-0.24789 h -21.55951 -6.06208 z" id="path4542"/> <g id="g4740" transform="matrix(0.76037534,0,0,0.76037534,362.30205,82.304452)" style="stroke-width:0.84461725"> <path d="M 222.38191 145.211578 H 225.679298 A 0.369261 0.369261 0 0 1 226.048558 145.580839 V 145.791797 A 0.369261 0.369261 0 0 1 225.679298 146.161057 H 222.38191 A 0.369261 0.369261 0 0 1 222.01265 145.791797 V 145.580839 A 0.369261 0.369261 0 0 1 222.38191 145.211578 Z" style="opacity:1;fill:#5aa02c;fill-opacity:1;stroke:none;stroke-width:0.08938865;stroke-linecap:round;stroke-linejoin:round;stroke-miterlimit:4;stroke-dasharray:none;stroke-dashoffset:0;stroke-opacity:1" id="rect4734" transform="scale(-1,1)"/> <path d="M 237.910429 145.211578 H 245.590444 A 0.369261 0.369261 0 0 1 245.959704 145.580839 V 145.791797 A 0.369261 0.369261 0 0 1 245.590444 146.161057 H 237.910429 A 0.369261 0.369261 0 0 1 237.541168 145.791797 V 145.580839 A 0.369261 0.369261 0 0 1 237.910429 145.211578 Z" id="rect4736" style="opacity:1;fill:#5aa02c;fill-opacity:1;stroke:none;stroke-width:0.08938866;stroke-linecap:round;stroke-linejoin:round;stroke-miterlimit:4;stroke-dasharray:none;stroke-dashoffset:0;stroke-opacity:1" transform="scale(-1,1)"/> <path d="M 227.85626 145.211578 H 235.536275 A 0.369261 0.369261 0 0 1 235.905536 145.580839 V 145.791797 A 0.369261 0.369261 0 0 1 235.536275 146.161057 H 227.85626 A 0.369261 0.369261 0 0 1 227.487 145.791797 V 145.580839 A 0.369261 0.369261 0 0 1 227.85626 145.211578 Z" transform="scale(-1,1)" style="opacity:1;fill:#5aa02c;fill-opacity:1;stroke:none;stroke-width:0.08938866;stroke-linecap:round;stroke-linejoin:round;stroke-miterlimit:4;stroke-dasharray:none;stroke-dashoffset:0;stroke-opacity:1" id="rect4738"/> </g> <path d="M -181.400833 194.522049 H -175.56114 A 0.280777 0.280777 0 0 1 -175.280363 194.802826 V 194.963233 A 0.280777 0.280777 0 0 1 -175.56114 195.244009 H -181.400833 A 0.280777 0.280777 0 0 1 -181.68161 194.963233 V 194.802826 A 0.280777 0.280777 0 0 1 -181.400833 194.522049 Z" id="rect4744" style="opacity:1;fill:#5aa02c;fill-opacity:1;stroke:none;stroke-width:0.06796893;stroke-linecap:round;stroke-linejoin:round;stroke-miterlimit:4;stroke-dasharray:none;stroke-dashoffset:0;stroke-opacity:1" transform="scale(-1,1)"/> <path d="M -199.378952 194.522049 H -183.206079 A 0.280777 0.280777 0 0 1 -182.925303 194.802826 V 194.963233 A 0.280777 0.280777 0 0 1 -183.206079 195.244009 H -199.378952 A 0.280777 0.280777 0 0 1 -199.659729 194.963233 V 194.802826 A 0.280777 0.280777 0 0 1 -199.378952 194.522049 Z" transform="scale(-1,1)" style="opacity:1;fill:#5aa02c;fill-opacity:1;stroke:none;stroke-width:0.06796893;stroke-linecap:round;stroke-linejoin:round;stroke-miterlimit:4;stroke-dasharray:none;stroke-dashoffset:0;stroke-opacity:1" id="rect4746"/> <path d="M -189.090638 196.204193 H -175.561137 A 0.280777 0.280777 0 0 1 -175.28036 196.48497 V 196.645377 A 0.280777 0.280777 0 0 1 -175.561137 196.926153 H -189.090638 A 0.280777 0.280777 0 0 1 -189.371414 196.645377 V 196.48497 A 0.280777 0.280777 0 0 1 -189.090638 196.204193 Z" transform="scale(-1,1)" style="opacity:1;fill:#5aa02c;fill-opacity:1;stroke:none;stroke-width:0.06796893;stroke-linecap:round;stroke-linejoin:round;stroke-miterlimit:4;stroke-dasharray:none;stroke-dashoffset:0;stroke-opacity:1" id="rect4753"/> <path transform="matrix(0.64222614,0,0,0.64222614,219.85621,92.553659)" id="path4803" d="m -88.999765,189.79824 -0.628746,3.7552 h 26.146744 l -0.628745,-3.7552 z" style="opacity:0.61400003;fill:#6d6f7a;fill-opacity:1;stroke:none;stroke-width:0.26458332px;stroke-linecap:butt;stroke-linejoin:miter;stroke-opacity:1;filter:url(#filter4837)"/> <path id="rect4663" d="m 109.47108,204.99876 v 6.43548 c 0,1.68525 1.35677,3.04201 3.04201,3.04201 h 116.35465 c 1.68524,0 3.042,-1.35676 3.042,-3.04201 v -6.43548 z" style="opacity:1;fill:#ececec;fill-opacity:1;stroke:none;stroke-width:0.06796893;stroke-linecap:round;stroke-linejoin:round;stroke-miterlimit:4;stroke-dasharray:none;stroke-dashoffset:0;stroke-opacity:1"/> <path d="M 173.239249 209.737503 A 2.548835 2.548835 0 0 1 170.690414 212.286338 A 2.548835 2.548835 0 0 1 168.141579 209.737503 A 2.548835 2.548835 0 0 1 170.690414 207.188668 A 2.548835 2.548835 0 0 1 173.239249 209.737503 Z" id="path4801" style="opacity:1;fill:#0b1229;fill-opacity:0.62867647;stroke:none;stroke-width:0.06796893;stroke-linecap:round;stroke-linejoin:round;stroke-miterlimit:4;stroke-dasharray:none;stroke-dashoffset:0;stroke-opacity:1"/> <g transform="matrix(0.58499465,0,0,0.58499465,287.80187,102.23108)" id="g4840"> <path d="M -285.589783 119.692543 H -236.791122 V 127.175819 H -285.589783 V 119.692543 Z" id="rect4557" style="opacity:1;fill:#efd9ce;fill-opacity:1;stroke:none;stroke-width:0.05897327;stroke-linecap:round;stroke-linejoin:round;stroke-miterlimit:4;stroke-dasharray:none;stroke-dashoffset:0;stroke-opacity:1"/> <path d="M -285.589783 131.276855 H -236.791122 V 134.526798 H -285.589783 V 131.276855 Z" style="opacity:1;fill:#efd9ce;fill-opacity:1;stroke:none;stroke-width:0.03886397;stroke-linecap:round;stroke-linejoin:round;stroke-miterlimit:4;stroke-dasharray:none;stroke-dashoffset:0;stroke-opacity:1" id="rect4830"/> <path d="M -285.589783 137.230026 H -236.791122 V 140.479969 H -285.589783 V 137.230026 Z" id="rect4832" style="opacity:1;fill:#efd9ce;fill-opacity:1;stroke:none;stroke-width:0.03886397;stroke-linecap:round;stroke-linejoin:round;stroke-miterlimit:4;stroke-dasharray:none;stroke-dashoffset:0;stroke-opacity:1"/> <path d="M -285.589783 143.183197 H -236.791122 V 146.43314 H -285.589783 V 143.183197 Z" style="opacity:1;fill:#efd9ce;fill-opacity:1;stroke:none;stroke-width:0.03886397;stroke-linecap:round;stroke-linejoin:round;stroke-miterlimit:4;stroke-dasharray:none;stroke-dashoffset:0;stroke-opacity:1" id="rect4834"/> </g> <g transform="matrix(0.58499465,0,0,0.58499465,323.47328,102.23108)" id="g4850"> <path d="M -285.589783 119.692543 H -236.791122 V 127.175819 H -285.589783 V 119.692543 Z" style="opacity:1;fill:#efd9ce;fill-opacity:1;stroke:none;stroke-width:0.05897327;stroke-linecap:round;stroke-linejoin:round;stroke-miterlimit:4;stroke-dasharray:none;stroke-dashoffset:0;stroke-opacity:1" id="rect4842"/> <path d="M -285.589783 131.276855 H -236.791122 V 134.526798 H -285.589783 V 131.276855 Z" id="rect4844" style="opacity:1;fill:#efd9ce;fill-opacity:1;stroke:none;stroke-width:0.03886397;stroke-linecap:round;stroke-linejoin:round;stroke-miterlimit:4;stroke-dasharray:none;stroke-dashoffset:0;stroke-opacity:1"/> <path d="M -285.589783 137.230026 H -236.791122 V 140.479969 H -285.589783 V 137.230026 Z" style="opacity:1;fill:#efd9ce;fill-opacity:1;stroke:none;stroke-width:0.03886397;stroke-linecap:round;stroke-linejoin:round;stroke-miterlimit:4;stroke-dasharray:none;stroke-dashoffset:0;stroke-opacity:1" id="rect4846"/> <path d="M -285.589783 143.183197 H -236.791122 V 146.43314 H -285.589783 V 143.183197 Z" id="rect4848" style="opacity:1;fill:#efd9ce;fill-opacity:1;stroke:none;stroke-width:0.03886397;stroke-linecap:round;stroke-linejoin:round;stroke-miterlimit:4;stroke-dasharray:none;stroke-dashoffset:0;stroke-opacity:1"/> </g> <g id="g4860" transform="matrix(0.58499465,0,0,0.58499465,359.1447,102.23108)"> <path d="M -285.589783 119.692543 H -236.791122 V 127.175819 H -285.589783 V 119.692543 Z" id="rect4852" style="opacity:1;fill:#efd9ce;fill-opacity:1;stroke:none;stroke-width:0.05897327;stroke-linecap:round;stroke-linejoin:round;stroke-miterlimit:4;stroke-dasharray:none;stroke-dashoffset:0;stroke-opacity:1"/> <path d="M -285.589783 131.276855 H -236.791122 V 134.526798 H -285.589783 V 131.276855 Z" style="opacity:1;fill:#efd9ce;fill-opacity:1;stroke:none;stroke-width:0.03886397;stroke-linecap:round;stroke-linejoin:round;stroke-miterlimit:4;stroke-dasharray:none;stroke-dashoffset:0;stroke-opacity:1" id="rect4854"/> <path d="M -285.589783 137.230026 H -236.791122 V 140.479969 H -285.589783 V 137.230026 Z" id="rect4856" style="opacity:1;fill:#efd9ce;fill-opacity:1;stroke:none;stroke-width:0.03886397;stroke-linecap:round;stroke-linejoin:round;stroke-miterlimit:4;stroke-dasharray:none;stroke-dashoffset:0;stroke-opacity:1"/> <path d="M -285.589783 143.183197 H -236.791122 V 146.43314 H -285.589783 V 143.183197 Z" style="opacity:1;fill:#efd9ce;fill-opacity:1;stroke:none;stroke-width:0.03886397;stroke-linecap:round;stroke-linejoin:round;stroke-miterlimit:4;stroke-dasharray:none;stroke-dashoffset:0;stroke-opacity:1" id="rect4858"/> </g> <g transform="translate(-0.09354877)" id="g4741"> <path d="M 120.564484 155.382034 H 149.535814 V 169.145743 H 120.564484 V 155.382034 Z" style="opacity:1;fill:#ffa69e;fill-opacity:0.72426471;stroke:none;stroke-width:0.03653826;stroke-linecap:round;stroke-linejoin:round;stroke-miterlimit:4;stroke-dasharray:none;stroke-dashoffset:0;stroke-opacity:1" id="rect4555"/> <path d="M 156.298416 155.382034 H 185.269747 V 169.145743 H 156.298416 V 155.382034 Z" id="rect4733" style="opacity:1;fill:#ffa69e;fill-opacity:0.72426471;stroke:none;stroke-width:0.03653826;stroke-linecap:round;stroke-linejoin:round;stroke-miterlimit:4;stroke-dasharray:none;stroke-dashoffset:0;stroke-opacity:1"/> <path d="M 192.032349 155.382034 H 221.003679 V 169.145743 H 192.032349 V 155.382034 Z" style="opacity:1;fill:#ffa69e;fill-opacity:0.72426471;stroke:none;stroke-width:0.03653826;stroke-linecap:round;stroke-linejoin:round;stroke-miterlimit:4;stroke-dasharray:none;stroke-dashoffset:0;stroke-opacity:1" id="rect4735"/> </g> </g> </g></g></svg>