<svg width="500" height="500" xmlns="http://www.w3.org/2000/svg" xmlns:xlink="http://www.w3.org/1999/xlink" version="1.1">
 <g>
  <title>Layer 1</title>
  <rect stroke="#1E1E1E" id="svg_1" fill="#ffffff" height="500" width="500" class="st0"/>
  <g id="svg_2">
   <g id="svg_3" opacity="0.5" class="st1">
    <g id="svg_4">
     <path stroke="#000000" id="svg_5" fill="#E8F7F7" d="m280.2,176l-199.2,0c-4.2,0 -7.5,3.4 -7.5,7.5l0,129.7c0,4.2 3.4,7.5 7.5,7.5l199.1,0c4.2,0 7.5,-3.4 7.5,-7.5l0,-129.6c0.1,-4.2 -3.3,-7.6 -7.4,-7.6zm-4.9,125.6l-188.8,0l0,-113.3l188.8,0l0,113.3z" class="st2"/>
    </g>
    <g id="svg_6">
     <rect stroke="#000000" id="svg_7" fill="#E8F7F7" height="8.7" width="66.6" class="st2" y="332.3" x="147.3"/>
    </g>
    <g id="svg_8">
     <path stroke="#000000" id="svg_9" fill="#1E4C4C" d="m86.5,301.6l188.8,0l0,-113.3l-188.8,0l0,113.3zm38.5,-105.1c1.9,0 3.5,1.5 3.5,3.5c0,1.9 -1.5,3.5 -3.5,3.5c-1.9,0 -3.5,-1.5 -3.5,-3.5c0,-1.9 1.6,-3.5 3.5,-3.5zm-11.6,0c1.9,0 3.5,1.5 3.5,3.5c0,1.9 -1.5,3.5 -3.5,3.5c-1.9,0 -3.5,-1.5 -3.5,-3.5c0.1,-1.9 1.6,-3.5 3.5,-3.5zm-11.5,0c1.9,0 3.5,1.5 3.5,3.5c0,1.9 -1.5,3.5 -3.5,3.5c-1.9,0 -3.5,-1.5 -3.5,-3.5c0,-1.9 1.6,-3.5 3.5,-3.5z" class="st3"/>
    </g>
    <g id="svg_10">
     <path stroke="#000000" id="svg_11" fill="#E8F7F7" d="m101.9,203.5c1.9,0 3.5,-1.5 3.5,-3.5c0,-1.9 -1.5,-3.5 -3.5,-3.5c-1.9,0 -3.5,1.5 -3.5,3.5c0,1.9 1.6,3.5 3.5,3.5z" class="st2"/>
    </g>
    <g id="svg_12">
     <path stroke="#000000" id="svg_13" fill="#E8F7F7" d="m113.4,203.5c1.9,0 3.5,-1.5 3.5,-3.5c0,-1.9 -1.5,-3.5 -3.5,-3.5c-1.9,0 -3.5,1.5 -3.5,3.5c0.1,1.9 1.6,3.5 3.5,3.5z" class="st2"/>
    </g>
    <g id="svg_14">
     <path stroke="#000000" id="svg_15" fill="#E8F7F7" d="m125,203.5c1.9,0 3.5,-1.5 3.5,-3.5c0,-1.9 -1.5,-3.5 -3.5,-3.5c-1.9,0 -3.5,1.5 -3.5,3.5c0,1.9 1.6,3.5 3.5,3.5z" class="st2"/>
    </g>
   </g>
   <g id="svg_16" opacity="0.1" class="st4">
    <g id="svg_17">
     <path stroke="#000000" id="svg_18" fill="#E8F7F7" d="m329.9,114.1c-0.1,-3.1 -2.6,-5.5 -5.7,-5.5l-152.3,0c-3.2,0 -5.8,2.6 -5.8,5.8l0,57.4l9.9,0l0,-53.7l144.3,0l0,13l9.4,-0.1l0,-16.9l0.2,0z" class="st2"/>
    </g>
    <g id="svg_19">
     <path stroke="#000000" id="svg_20" fill="#1E4C4C" d="m176.1,117.9l0,53.7l36,0l0,-39.5l108.3,-1.2l0,-13l-144.3,0zm11.8,11.6c-1.5,0 -2.6,-1.2 -2.6,-2.6c0,-1.5 1.2,-2.6 2.6,-2.6c1.5,0 2.6,1.2 2.6,2.6c0,1.4 -1.1,2.6 -2.6,2.6zm8.8,0c-1.5,0 -2.6,-1.2 -2.6,-2.6c0,-1.5 1.2,-2.6 2.6,-2.6c1.5,0 2.6,1.2 2.6,2.6c0.1,1.4 -1.1,2.6 -2.6,2.6zm8.8,0c-1.5,0 -2.6,-1.2 -2.6,-2.6c0,-1.5 1.2,-2.6 2.6,-2.6c1.5,0 2.6,1.2 2.6,2.6c0.1,1.4 -1.1,2.6 -2.6,2.6z" class="st3"/>
    </g>
    <g id="svg_21">
     <path stroke="#000000" id="svg_22" fill="#E8F7F7" d="m187.9,124.2c-1.5,0 -2.6,1.2 -2.6,2.6c0,1.5 1.2,2.6 2.6,2.6c1.5,0 2.6,-1.2 2.6,-2.6c0,-1.4 -1.1,-2.6 -2.6,-2.6z" class="st2"/>
    </g>
    <g id="svg_23">
     <path stroke="#000000" id="svg_24" fill="#E8F7F7" d="m196.7,124.2c-1.5,0 -2.6,1.2 -2.6,2.6c0,1.5 1.2,2.6 2.6,2.6c1.5,0 2.6,-1.2 2.6,-2.6c0.1,-1.4 -1.1,-2.6 -2.6,-2.6z" class="st2"/>
    </g>
    <g id="svg_25">
     <path stroke="#000000" id="svg_26" fill="#E8F7F7" d="m205.5,124.2c-1.5,0 -2.6,1.2 -2.6,2.6c0,1.5 1.2,2.6 2.6,2.6c1.5,0 2.6,-1.2 2.6,-2.6c0.1,-1.4 -1.1,-2.6 -2.6,-2.6z" class="st2"/>
    </g>
   </g>
   <g id="svg_27" opacity="0.5" class="st1">
    <g id="svg_28">
     <g id="svg_29">
      <path stroke="#000000" id="svg_30" fill="#FFFFFF" clip-rule="evenodd" fill-rule="evenodd" d="m140.6,115.9c0,-20.6 -16.7,-37.2 -37.2,-37.2c-20.6,0 -37.2,16.7 -37.2,37.2c0,20.6 16.7,37.2 37.2,37.2c20.5,0 37.2,-16.6 37.2,-37.2z" class="st5"/>
     </g>
    </g>
    <g id="svg_31">
     <g id="svg_32">
      <rect stroke="#000000" id="svg_33" fill="#1A7C7B" clip-rule="evenodd" fill-rule="evenodd" height="24.9" width="2.2" class="st6" transform="matrix(0.9323 0.3617 -0.3617 0.9323 45.9035 -31.4507)" y="94.4" x="105.9"/>
     </g>
    </g>
    <g id="svg_34">
     <g id="svg_35">
      <rect stroke="#000000" id="svg_36" fill="#1A7C7B" clip-rule="evenodd" fill-rule="evenodd" height="17.1" width="2.2" class="st6" transform="matrix(0.2783 -0.9605 0.9605 0.2783 -42.0166 174.8495)" y="106.8" x="94.2"/>
     </g>
    </g>
    <g id="svg_37">
     <g id="svg_38">
      <g id="svg_39">
       <path stroke="#000000" id="svg_40" fill="#1A7C7B" d="m104.2,83.4c0,-0.7 -0.6,-1.4 -1.4,-1.4c-0.7,0 -1.4,0.6 -1.4,1.4c0,0.7 0.6,1.4 1.4,1.4c0.8,-0.1 1.4,-0.7 1.4,-1.4z" class="st7"/>
      </g>
     </g>
     <g id="svg_41">
      <g id="svg_42">
       <path stroke="#000000" id="svg_43" fill="#1A7C7B" d="m104.2,146.7c0,-0.8 -0.6,-1.4 -1.4,-1.4c-0.7,0 -1.4,0.6 -1.4,1.4c0,0.7 0.6,1.4 1.4,1.4c0.8,0 1.4,-0.6 1.4,-1.4z" class="st7"/>
      </g>
     </g>
    </g>
    <g id="svg_44">
     <g id="svg_45">
      <g id="svg_46">
       <path stroke="#000000" id="svg_47" fill="#1A7C7B" d="m71.2,113.7c-0.7,0 -1.4,0.6 -1.4,1.4c0,0.7 0.6,1.4 1.4,1.4c0.7,0 1.4,-0.6 1.4,-1.4c-0.1,-0.8 -0.7,-1.4 -1.4,-1.4z" class="st7"/>
      </g>
     </g>
     <g id="svg_48">
      <g id="svg_49">
       <path stroke="#000000" id="svg_50" fill="#1A7C7B" d="m134.5,113.7c-0.7,0 -1.4,0.6 -1.4,1.4c0,0.7 0.6,1.4 1.4,1.4c0.8,0 1.4,-0.6 1.4,-1.4c0,-0.8 -0.6,-1.4 -1.4,-1.4z" class="st7"/>
      </g>
     </g>
    </g>
   </g>
   <g id="svg_51" opacity="0.2" class="st8">
    <g id="svg_52">
     <path stroke="#000000" id="svg_53" fill="#E8F7F7" d="m424.5,135.9l-199.2,0c-4.2,0 -7.5,3.4 -7.5,7.5l0,27.6l13,0l0,-22.9l188.8,0l0,113.3l-122.4,0l0,19.1l127.3,0c4.2,0 7.5,-3.4 7.5,-7.5l0,-129.6c0,-4.1 -3.4,-7.5 -7.5,-7.5z" class="st2"/>
    </g>
    <g id="svg_54">
     <rect stroke="#000000" id="svg_55" fill="#E8F7F7" height="8.7" width="61" class="st2" y="292.2" x="297.2"/>
    </g>
    <g id="svg_56">
     <path stroke="#000000" id="svg_57" fill="#1E4C4C" d="m419.6,148.2l-188.8,0l0,22.9l66.4,0l0,90.4l122.4,0l0,-113.3zm-173.4,15.1c-1.9,0 -3.5,-1.5 -3.5,-3.5c0,-1.9 1.5,-3.5 3.5,-3.5c1.9,0 3.5,1.5 3.5,3.5c0,2 -1.6,3.5 -3.5,3.5zm11.6,0c-1.9,0 -3.5,-1.5 -3.5,-3.5c0,-1.9 1.5,-3.5 3.5,-3.5c1.9,0 3.5,1.5 3.5,3.5c-0.1,2 -1.6,3.5 -3.5,3.5zm11.5,0c-1.9,0 -3.5,-1.5 -3.5,-3.5c0,-1.9 1.5,-3.5 3.5,-3.5s3.5,1.5 3.5,3.5c-0.1,2 -1.6,3.5 -3.5,3.5z" class="st3"/>
    </g>
    <g id="svg_58">
     <path stroke="#000000" id="svg_59" fill="#E8F7F7" d="m246.2,156.4c-1.9,0 -3.5,1.5 -3.5,3.5c0,1.9 1.5,3.5 3.5,3.5c1.9,0 3.5,-1.5 3.5,-3.5c0,-2 -1.6,-3.5 -3.5,-3.5z" class="st2"/>
    </g>
    <g id="svg_60">
     <path stroke="#000000" id="svg_61" fill="#E8F7F7" d="m257.8,156.4c-1.9,0 -3.5,1.5 -3.5,3.5c0,1.9 1.5,3.5 3.5,3.5c1.9,0 3.5,-1.5 3.5,-3.5c-0.1,-2 -1.6,-3.5 -3.5,-3.5z" class="st2"/>
    </g>
    <g id="svg_62">
     <path stroke="#000000" id="svg_63" fill="#E8F7F7" d="m269.3,156.4c-1.9,0 -3.5,1.5 -3.5,3.5c0,1.9 1.5,3.5 3.5,3.5s3.5,-1.5 3.5,-3.5c-0.1,-2 -1.6,-3.5 -3.5,-3.5z" class="st2"/>
    </g>
   </g>
   <g id="svg_64">
    <g id="svg_65">
     <path stroke="#000000" id="svg_66" fill="#E8F7F7" d="m153.4,371.9l199.1,0c4.2,0 7.5,-3.4 7.5,-7.5l0,-129.7c0,-4.2 -3.4,-7.5 -7.5,-7.5l-199.1,0c-4.2,0 -7.5,3.4 -7.5,7.5l0,129.7c-0.1,4.2 3.3,7.5 7.5,7.5z" class="st2"/>
    </g>
   </g>
   <g id="svg_67">
    <g id="svg_68">
     <rect stroke="#000000" id="svg_69" fill="#E8F7F7" height="8.7" width="66.6" class="st2" y="383.5" x="219.6"/>
    </g>
   </g>
   <g id="svg_70">
    <g id="svg_71">
     <g id="svg_72">
      <rect stroke="#000000" id="svg_73" fill="#1E4C4C" height="113.3" width="188.8" class="st3" y="239.5" x="158.8"/>
     </g>
    </g>
   </g>
   <g id="svg_74">
    <g id="svg_75">
     <path stroke="#000000" id="svg_76" fill="#9EC10D" clip-rule="evenodd" fill-rule="evenodd" d="m345.2,362c0,-2.7 -2.2,-4.9 -4.9,-4.9s-4.9,2.2 -4.9,4.9c0,2.7 2.2,4.9 4.9,4.9s4.9,-2.3 4.9,-4.9z" class="st9"/>
    </g>
   </g>
   <g id="svg_77">
    <defs stroke="#000000">
     <path stroke="#000000" d="m153.4,371.9l199.1,0c4.2,0 7.5,-3.4 7.5,-7.5l0,-129.7c0,-4.2 -3.4,-7.5 -7.5,-7.5l-199.1,0c-4.2,0 -7.5,3.4 -7.5,7.5l0,129.7c-0.1,4.2 3.3,7.5 7.5,7.5z" id="SVGID_1_"/>
    </defs>
    <clipPath stroke="#000000" id="SVGID_2_">
     <use stroke="#000000" id="svg_78" xlink:href="#SVGID_1_"/>
    </clipPath>
    <g id="svg_79" clip-path="url(#SVGID_2_)" opacity="0.2" class="st10">
     <g id="svg_80">
      <path stroke="#000000" id="svg_81" fill="#1E4C4C" clip-rule="evenodd" fill-rule="evenodd" d="m357.4,195.7c0.4,-1.2 0.9,-2.3 1.2,-3.4c0.2,-0.6 0.5,-1.1 1.4,-1c2.6,0.4 5.3,0.7 7.9,1c0.5,0.1 0.9,0.4 0.9,1.1c0.2,4 1.6,7.6 4.2,10.6c1.6,1.9 3.5,3.3 5.9,4.2c4.9,1.8 9.5,1.2 14.1,-1.1c0.5,-0.3 1,-0.1 1.3,0.2c1.7,2.2 3.4,4.5 5.1,6.7c0.5,0.7 -0.1,1 -0.5,1.4c-1.6,1.7 -2.7,3.7 -3.3,5.9c-1.4,5 0.1,9.4 2.7,13.6c1.2,2 2.9,3.6 5.1,4.6c0.7,0.4 1.5,0.6 2.2,0.9c0.2,0.1 0.5,0.5 0.4,0.7c-0.2,2.5 -0.5,5 -0.8,7.5c0,0.2 0,0.4 0,0.6c-0.2,0.6 -0.4,1.1 -1.2,1.1c-4.2,0.1 -8,1.3 -11.1,4.3c-1.4,1.4 -2.5,3 -3.1,4.9c-0.7,2.1 -0.9,4.2 -0.6,6.4c0.3,2.4 1,4.5 2.2,6.6c0.4,0.6 0.3,1.1 -0.1,1.4c-2.2,1.7 -4.4,3.4 -6.6,5.1c-0.2,0.1 -0.7,0.1 -0.9,0c-0.7,-0.4 -1.3,-1.1 -2,-1.5c-2.9,-1.8 -6.1,-2.3 -9.5,-1.8c-3.1,0.4 -6,1.2 -8.5,3.1c-2.4,1.8 -3.9,4.3 -4.8,7.2c-0.3,1 -0.5,1.3 -1.7,1.2c-2.5,-0.3 -5.1,-0.6 -7.6,-0.9c-0.6,-0.1 -1,-0.4 -1,-1.1c-0.2,-4 -1.6,-7.5 -4.1,-10.6c-1.5,-1.7 -3.2,-3.2 -5.3,-4c-5,-1.9 -9.9,-1.6 -14.6,0.9c-0.7,0.4 -1.2,0.2 -1.6,-0.3c-1.5,-1.9 -3,-3.8 -4.5,-5.8c-0.8,-1.1 -0.6,-1.2 0.2,-2.3c1.2,-1.6 2.3,-3.3 3,-5.2c1.2,-3.1 0.8,-6.3 -0.3,-9.4c-1.6,-4.7 -4.9,-7.6 -9.6,-9c-0.7,-0.2 -1.2,-0.6 -1.1,-1.5c0.3,-2.6 0.6,-5.2 1,-7.8c0.1,-0.6 0.4,-1 1.1,-1c4,-0.2 7.6,-1.6 10.7,-4.3c1.6,-1.4 3,-3 3.8,-5.1c1.5,-3.8 1.3,-7.6 -0.2,-11.3c-0.3,-0.9 -0.8,-1.7 -1.2,-2.5c-0.3,-0.5 -0.2,-1 0.2,-1.3c2.1,-1.7 4.3,-3.3 6.5,-5c0.5,-0.4 0.8,-0.2 1.2,0.1c0.6,0.5 1.2,1 1.8,1.4c3.8,2.3 7.8,2.4 11.9,1.4c2.6,-0.6 5,-1.6 6.9,-3.4c1.1,-1.1 1.9,-2.4 2.9,-3.5zm17.9,6.1c-9.7,-5.4 -21.6,-2.1 -27.1,7.4c-5.5,9.6 -2.1,21.6 7.4,27c9.6,5.5 21.6,2.2 27.1,-7.4c5.4,-9.5 2.1,-21.4 -7.4,-27z" class="st11"/>
     </g>
    </g>
   </g>
   <g id="svg_82">
    <path stroke="#000000" id="svg_83" fill="#E8F7F7" d="m421.2,420.2l-51.1,0l0,0c0,-12.8 10.3,-23.1 23.1,-23.1l4.9,0c12.8,0 23.1,10.3 23.1,23.1l0,0z" class="st2"/>
   </g>
   <g id="svg_84">
    <path stroke="#000000" id="svg_85" fill="#E8F7F7" d="m372.3,420.2l-29.1,0c-6.9,0 -12.6,-5.6 -12.6,-12.6l0,-9.7c0,-3.1 -2.5,-5.6 -5.6,-5.6l-17.4,0l0,-7l17.4,0c6.9,0 12.6,5.6 12.6,12.6l0,9.7c0,3.1 2.5,5.6 5.6,5.6l29.1,0l0,7z" class="st2"/>
   </g>
   <g id="svg_86">
    <g id="svg_87">
     <g id="svg_88">
      <path stroke="#000000" id="svg_89" fill="#FCC020" clip-rule="evenodd" fill-rule="evenodd" d="m366.3,173c0.4,-1.2 0.9,-2.4 1.3,-3.5c0.2,-0.7 0.5,-1.1 1.4,-1c2.7,0.4 5.4,0.7 8.1,1c0.6,0.1 0.9,0.4 0.9,1.1c0.2,4.1 1.6,7.8 4.3,10.9c1.6,1.9 3.6,3.4 6.1,4.3c5,1.8 9.8,1.2 14.4,-1.1c0.6,-0.3 1,-0.1 1.3,0.2c1.8,2.3 3.5,4.6 5.2,6.9c0.5,0.7 -0.1,1 -0.5,1.4c-1.6,1.8 -2.8,3.8 -3.4,6.1c-1.4,5.1 0.1,9.7 2.7,13.9c1.3,2.1 3,3.7 5.2,4.7c0.7,0.4 1.5,0.6 2.3,0.9c0.2,0.1 0.5,0.5 0.4,0.8c-0.2,2.6 -0.6,5.1 -0.8,7.6c0,0.2 0,0.4 0,0.6c-0.2,0.6 -0.4,1.1 -1.2,1.1c-4.3,0.1 -8.2,1.4 -11.4,4.4c-1.4,1.4 -2.5,3.1 -3.2,5.1c-0.7,2.2 -0.9,4.3 -0.6,6.5c0.3,2.4 1.1,4.6 2.2,6.7c0.4,0.6 0.4,1.1 -0.1,1.5c-2.2,1.8 -4.5,3.5 -6.8,5.2c-0.2,0.1 -0.7,0.1 -0.9,0c-0.7,-0.5 -1.3,-1.1 -2,-1.5c-3,-1.8 -6.3,-2.3 -9.8,-1.9c-3.1,0.4 -6.1,1.3 -8.7,3.2c-2.5,1.9 -4,4.5 -4.9,7.4c-0.3,1.1 -0.5,1.4 -1.7,1.2c-2.6,-0.3 -5.2,-0.6 -7.8,-0.9c-0.6,-0.1 -1,-0.4 -1,-1.1c-0.2,-4.1 -1.6,-7.7 -4.2,-10.8c-1.5,-1.8 -3.3,-3.2 -5.4,-4.1c-5.1,-2 -10.2,-1.6 -15,0.9c-0.7,0.4 -1.2,0.2 -1.6,-0.4c-1.6,-1.9 -3.1,-3.9 -4.7,-6c-0.8,-1.1 -0.6,-1.2 0.2,-2.4c1.2,-1.6 2.3,-3.4 3.1,-5.3c1.2,-3.2 0.8,-6.4 -0.3,-9.6c-1.7,-4.8 -5,-7.8 -9.8,-9.2c-0.8,-0.2 -1.2,-0.6 -1.1,-1.5c0.3,-2.6 0.6,-5.3 1,-8c0.1,-0.6 0.4,-1 1.1,-1c4.1,-0.2 7.8,-1.6 11,-4.4c1.7,-1.4 3.1,-3.1 3.9,-5.2c1.6,-3.9 1.3,-7.8 -0.2,-11.6c-0.4,-0.9 -0.8,-1.7 -1.2,-2.6c-0.3,-0.5 -0.2,-1 0.2,-1.3c2.2,-1.7 4.4,-3.4 6.6,-5.1c0.5,-0.4 0.8,-0.2 1.2,0.1c0.6,0.5 1.2,1.1 1.9,1.5c3.8,2.3 8,2.4 12.2,1.4c2.7,-0.6 5.1,-1.7 7.1,-3.5c1.2,-1.1 2,-2.5 3,-3.6zm11.5,26.9c-9.9,-5.5 -22.2,-2.2 -27.7,7.6c-5.6,9.8 -2.2,22.1 7.6,27.7c9.8,5.6 22.1,2.2 27.7,-7.6c5.5,-9.7 2.1,-22 -7.6,-27.7z" class="st12"/>
     </g>
    </g>
   </g>
   <g id="svg_90">
    <path stroke="#000000" id="svg_91" fill="#FCC020" d="m177.7,251.2c0,-1.9 -1.5,-3.5 -3.5,-3.5c-1.9,0 -3.5,1.5 -3.5,3.5c0,1.9 1.5,3.5 3.5,3.5c2,-0.1 3.5,-1.6 3.5,-3.5z" class="st13"/>
   </g>
   <g id="svg_92">
    <path stroke="#000000" id="svg_93" fill="#9EC10D" d="m189.2,251.2c0,-1.9 -1.5,-3.5 -3.5,-3.5c-1.9,0 -3.5,1.5 -3.5,3.5c0,1.9 1.5,3.5 3.5,3.5c2,-0.1 3.5,-1.6 3.5,-3.5z" class="st14"/>
   </g>
   <g id="svg_94">
    <path stroke="#000000" id="svg_95" fill="#E8F7F7" d="m200.8,251.2c0,-1.9 -1.5,-3.5 -3.5,-3.5c-1.9,0 -3.5,1.5 -3.5,3.5c0,1.9 1.5,3.5 3.5,3.5c1.9,-0.1 3.5,-1.6 3.5,-3.5z" class="st2"/>
   </g>
   <g id="svg_96">
    <g id="svg_97">
     <rect stroke="#000000" id="svg_98" fill="#E8F7F7" height="22.7" width="103.8" class="st2" y="304.5" x="199"/>
    </g>
    <g id="svg_99">
     <path stroke="#000000" id="svg_100" fill="#1E4C4C" clip-rule="evenodd" fill-rule="evenodd" d="m222.8,316.2c0,-2.6 -2.1,-4.7 -4.7,-4.7c-2.6,0 -4.7,2.1 -4.7,4.7s2.1,4.7 4.7,4.7c2.7,0 4.7,-2.1 4.7,-4.7z" class="st11"/>
    </g>
    <g id="svg_101">
     <path stroke="#000000" id="svg_102" fill="#1E4C4C" clip-rule="evenodd" fill-rule="evenodd" d="m236.5,316.2c0,-2.6 -2.1,-4.7 -4.7,-4.7c-2.6,0 -4.7,2.1 -4.7,4.7s2.1,4.7 4.7,4.7c2.6,0 4.7,-2.1 4.7,-4.7z" class="st11"/>
    </g>
    <g id="svg_103">
     <path stroke="#000000" id="svg_104" fill="#1E4C4C" clip-rule="evenodd" fill-rule="evenodd" d="m250.2,316.2c0,-2.6 -2.1,-4.7 -4.7,-4.7c-2.6,0 -4.7,2.1 -4.7,4.7s2.1,4.7 4.7,4.7c2.6,0 4.7,-2.1 4.7,-4.7z" class="st11"/>
    </g>
    <g id="svg_105">
     <path stroke="#000000" id="svg_106" fill="#1E4C4C" clip-rule="evenodd" fill-rule="evenodd" d="m263.8,316.2c0,-2.6 -2.1,-4.7 -4.7,-4.7c-2.6,0 -4.7,2.1 -4.7,4.7s2.1,4.7 4.7,4.7c2.6,0 4.7,-2.1 4.7,-4.7z" class="st11"/>
    </g>
    <g id="svg_107">
     <path stroke="#000000" id="svg_108" fill="#1E4C4C" clip-rule="evenodd" fill-rule="evenodd" d="m277.5,316.2c0,-2.6 -2.1,-4.7 -4.7,-4.7s-4.7,2.1 -4.7,4.7s2.1,4.7 4.7,4.7s4.7,-2.1 4.7,-4.7z" class="st11"/>
    </g>
    <g id="svg_109">
     <path stroke="#000000" id="svg_110" fill="#1E4C4C" clip-rule="evenodd" fill-rule="evenodd" d="m291.2,316.2c0,-2.6 -2.1,-4.7 -4.7,-4.7s-4.7,2.1 -4.7,4.7s2.1,4.7 4.7,4.7s4.7,-2.1 4.7,-4.7z" class="st11"/>
    </g>
   </g>
   <g id="svg_111">
    <g id="svg_112">
     <rect stroke="#000000" id="svg_113" fill="#E8F7F7" height="22.7" width="103.8" class="st2" y="270.3" x="199"/>
    </g>
   </g>
   <g id="svg_114">
    <path stroke="#000000" id="svg_115" fill="#9EC10D" clip-rule="evenodd" fill-rule="evenodd" d="m212.3,286.3l9.1,0c2.2,0 3.9,-1.8 3.9,-3.9l0,0c0,-2.2 -1.8,-3.9 -3.9,-3.9l-9.1,0c-2.2,0 -3.9,1.8 -3.9,3.9l0,0c-0.1,2.1 1.7,3.9 3.9,3.9z" class="st9"/>
   </g>
   <g id="svg_116">
    <path stroke="#000000" id="svg_117" fill="#9EC10D" clip-rule="evenodd" fill-rule="evenodd" d="m265.6,286.3l12.5,0c2.2,0 3.9,-1.8 3.9,-3.9l0,0c0,-2.2 -1.8,-3.9 -3.9,-3.9l-12.5,0c-2.2,0 -3.9,1.8 -3.9,3.9l0,0c0,2.1 1.8,3.9 3.9,3.9z" class="st9"/>
   </g>
   <g id="svg_118">
    <path stroke="#000000" id="svg_119" fill="#9EC10D" clip-rule="evenodd" fill-rule="evenodd" d="m233.2,286.3l8.8,0c2.2,0 3.9,-1.8 3.9,-3.9l0,0c0,-2.2 -1.8,-3.9 -3.9,-3.9l-8.8,0c-2.2,0 -3.9,1.8 -3.9,3.9l0,0c0,2.1 1.7,3.9 3.9,3.9z" class="st9"/>
   </g>
   <g id="svg_120">
    <path stroke="#000000" id="svg_121" fill="#9EC10D" clip-rule="evenodd" fill-rule="evenodd" d="m252,286.3l2.8,0c2.2,0 3.9,-1.8 3.9,-3.9l0,0c0,-2.2 -1.8,-3.9 -3.9,-3.9l-2.8,0c-2.2,0 -3.9,1.8 -3.9,3.9l0,0c0,2.1 1.7,3.9 3.9,3.9z" class="st9"/>
   </g>
  </g>
 </g>
</svg>